<mxfile host="app.diagrams.net" agent="Mozilla/5.0 (Windows NT 10.0; Win64; x64; rv:135.0) Gecko/20100101 Firefox/135.0" version="26.0.10">
  <diagram name="Page 2" id="0">
    <mxGraphModel dx="4393" dy="2324" grid="1" gridSize="10" guides="1" tooltips="1" connect="1" arrows="1" fold="1" page="1" pageScale="1" pageWidth="827" pageHeight="1169" math="0" shadow="0">
      <root>
        <mxCell id="0" />
        <mxCell id="1" parent="0" />
        <mxCell id="c_pmkNfR0mzENY8hxApa-149" style="edgeStyle=orthogonalEdgeStyle;rounded=0;orthogonalLoop=1;jettySize=auto;html=1;" edge="1" parent="1" source="c_pmkNfR0mzENY8hxApa-123" target="c_pmkNfR0mzENY8hxApa-106">
          <mxGeometry relative="1" as="geometry" />
        </mxCell>
        <mxCell id="c_pmkNfR0mzENY8hxApa-123" value="&lt;div&gt;sum over &lt;b&gt;se2fe&lt;/b&gt;&lt;/div&gt;" style="rounded=0;whiteSpace=wrap;html=1;" vertex="1" parent="1">
          <mxGeometry x="-105" y="386" width="100" height="30" as="geometry" />
        </mxCell>
        <mxCell id="22" value="v33_emi(te) --&gt; DAC and EW separate!" style="graphMlID=n20;shape=mxgraph.flowchart.process;fillColor=#D2EEEDFF" parent="1" vertex="1">
          <mxGeometry x="200.005" y="369" width="232.125" height="31" as="geometry" />
        </mxCell>
        <mxCell id="34" value="this is used to calculate the ratio by which BECC and DACC are scaled before inclusion in emiCdrAll" style="graphMlID=n32;shape=mxgraph.flowchart.process;fillColor=#D2DEEE00;strokeColor=#FDFDFD6D;fontStyle=0;whiteSpace=wrap;" parent="1" vertex="1">
          <mxGeometry x="-869.26" y="1080" width="117" height="146.5" as="geometry" />
        </mxCell>
        <mxCell id="39" value="" style="graphMlID=e2;endArrow=oval;rounded=0;strokeColor=#006610FF;endFill=1;endSize=3.75;startArrow=none;startFill=1;startSize=6" parent="1" source="LM8mgtd1PfPeEbZ4qfP5-101" edge="1">
          <mxGeometry relative="1" as="geometry">
            <mxPoint x="-401.5123373101951" y="107" as="sourcePoint" />
            <mxPoint x="-140.3470715835142" y="25.125" as="targetPoint" />
          </mxGeometry>
        </mxCell>
        <mxCell id="66" value="" style="graphMlID=e29;endArrow=oval;rounded=0;strokeColor=#006610FF;endFill=1;endSize=3.75;startArrow=none;startFill=1;startSize=6" parent="1" edge="1">
          <mxGeometry relative="1" as="geometry">
            <Array as="points">
              <mxPoint x="-1331.5" y="-125.5" />
            </Array>
            <mxPoint x="-1296.6585782462407" y="-248.5050000000001" as="sourcePoint" />
          </mxGeometry>
        </mxCell>
        <mxCell id="LM8mgtd1PfPeEbZ4qfP5-91" value="&lt;div&gt;&lt;b&gt;&lt;font face=&quot;Verdana&quot;&gt;vm_emiAll&lt;/font&gt;&lt;/b&gt;&lt;/div&gt;&lt;div&gt;&lt;i&gt;All Emissions&lt;br&gt;&lt;/i&gt;&lt;/div&gt;" style="rounded=1;whiteSpace=wrap;html=1;fillColor=#f8cecc;strokeColor=#b85450;" parent="1" vertex="1">
          <mxGeometry x="-57.94000000000001" y="-240" width="115.87" height="50" as="geometry" />
        </mxCell>
        <mxCell id="LM8mgtd1PfPeEbZ4qfP5-92" value="&lt;div&gt;&lt;font face=&quot;Verdana&quot;&gt;&lt;b&gt;vm_emiAllMkt&lt;/b&gt;&lt;/font&gt;&lt;/div&gt;&lt;div&gt;&lt;i&gt;All Emissions per Market&lt;b&gt;&lt;br&gt;&lt;/b&gt;&lt;/i&gt;&lt;/div&gt;" style="rounded=1;whiteSpace=wrap;html=1;fillColor=#f8cecc;strokeColor=#b85450;" parent="1" vertex="1">
          <mxGeometry x="-73.75" y="-140" width="147.5" height="50" as="geometry" />
        </mxCell>
        <mxCell id="LM8mgtd1PfPeEbZ4qfP5-97" value="" style="shape=waypoint;sketch=0;fillStyle=solid;size=6;pointerEvents=1;points=[];fillColor=none;resizable=0;rotatable=0;perimeter=centerPerimeter;snapToPoint=1;" parent="1" vertex="1">
          <mxGeometry x="-10" y="-50" width="20" height="20" as="geometry" />
        </mxCell>
        <mxCell id="LM8mgtd1PfPeEbZ4qfP5-99" value="" style="endArrow=classic;html=1;rounded=0;entryX=0.5;entryY=1;entryDx=0;entryDy=0;" parent="1" source="LM8mgtd1PfPeEbZ4qfP5-97" target="LM8mgtd1PfPeEbZ4qfP5-92" edge="1">
          <mxGeometry width="50" height="50" relative="1" as="geometry">
            <mxPoint x="-210" y="90" as="sourcePoint" />
            <mxPoint x="-160" y="40" as="targetPoint" />
          </mxGeometry>
        </mxCell>
        <mxCell id="LM8mgtd1PfPeEbZ4qfP5-100" value="&lt;div&gt;&lt;br&gt;&lt;/div&gt;&lt;div&gt;&lt;font face=&quot;Verdana&quot;&gt;&lt;b&gt;vm_emiTeMkt&lt;/b&gt;&lt;/font&gt;&lt;/div&gt;&lt;div&gt;&lt;i&gt;Energie related Emissions per Market&lt;/i&gt;&lt;/div&gt;&lt;div&gt;&lt;font face=&quot;Verdana&quot;&gt;&lt;br&gt;&lt;/font&gt;&lt;/div&gt;" style="rounded=1;whiteSpace=wrap;html=1;fillColor=#e1d5e7;strokeColor=#9673a6;" parent="1" vertex="1">
          <mxGeometry x="-653" y="-0.5" width="227" height="50" as="geometry" />
        </mxCell>
        <mxCell id="LM8mgtd1PfPeEbZ4qfP5-103" value="&lt;div&gt;&lt;b&gt;MAGICC&lt;/b&gt;&lt;/div&gt;&lt;div&gt;&lt;i&gt;Climate Module&lt;/i&gt;&lt;br&gt;&lt;/div&gt;" style="shape=hexagon;perimeter=hexagonPerimeter2;whiteSpace=wrap;html=1;fixedSize=1;" parent="1" vertex="1">
          <mxGeometry x="-62.07" y="-410" width="120" height="80" as="geometry" />
        </mxCell>
        <mxCell id="LM8mgtd1PfPeEbZ4qfP5-104" value="" style="endArrow=classic;html=1;rounded=0;exitX=0.5;exitY=0;exitDx=0;exitDy=0;entryX=0.5;entryY=1;entryDx=0;entryDy=0;" parent="1" source="LM8mgtd1PfPeEbZ4qfP5-91" target="LM8mgtd1PfPeEbZ4qfP5-103" edge="1">
          <mxGeometry width="50" height="50" relative="1" as="geometry">
            <mxPoint x="-20" y="-180" as="sourcePoint" />
            <mxPoint x="30" y="-230" as="targetPoint" />
          </mxGeometry>
        </mxCell>
        <mxCell id="LM8mgtd1PfPeEbZ4qfP5-135" value="&lt;div&gt;inputs to &lt;br&gt;&lt;/div&gt;&lt;div&gt;(among others)&lt;/div&gt;" style="edgeLabel;html=1;align=center;verticalAlign=middle;resizable=0;points=[];" parent="LM8mgtd1PfPeEbZ4qfP5-104" vertex="1" connectable="0">
          <mxGeometry x="-0.0192" y="-1" relative="1" as="geometry">
            <mxPoint as="offset" />
          </mxGeometry>
        </mxCell>
        <mxCell id="LM8mgtd1PfPeEbZ4qfP5-105" value="&lt;div&gt;&lt;br&gt;&lt;/div&gt;&lt;div&gt;&lt;font face=&quot;Verdana&quot;&gt;&lt;b&gt;vm_emiTe&lt;/b&gt;&lt;/font&gt;&lt;/div&gt;&lt;div&gt;&lt;i&gt;Energie Emissions &lt;br&gt;&lt;/i&gt;&lt;/div&gt;&lt;div&gt;&lt;font face=&quot;Verdana&quot;&gt;&lt;br&gt;&lt;/font&gt;&lt;/div&gt;" style="rounded=1;whiteSpace=wrap;html=1;fillColor=#e1d5e7;strokeColor=#9673a6;" parent="1" vertex="1">
          <mxGeometry x="-634.5" y="-240" width="190" height="50" as="geometry" />
        </mxCell>
        <mxCell id="LM8mgtd1PfPeEbZ4qfP5-106" value="" style="endArrow=classic;html=1;rounded=0;exitX=0.5;exitY=0;exitDx=0;exitDy=0;entryX=0.5;entryY=1;entryDx=0;entryDy=0;" parent="1" source="c_pmkNfR0mzENY8hxApa-94" target="LM8mgtd1PfPeEbZ4qfP5-105" edge="1">
          <mxGeometry width="50" height="50" relative="1" as="geometry">
            <mxPoint x="-140" y="-50" as="sourcePoint" />
            <mxPoint x="-90" y="-100" as="targetPoint" />
          </mxGeometry>
        </mxCell>
        <mxCell id="LM8mgtd1PfPeEbZ4qfP5-108" value="&lt;div&gt;&lt;font face=&quot;Verdana&quot;&gt;&lt;b&gt;vm_emiMac&lt;/b&gt;&lt;/font&gt;&lt;/div&gt;&lt;div&gt;&lt;i&gt;non-energy-related emissions&lt;/i&gt;&lt;br&gt;&lt;/div&gt;" style="rounded=1;whiteSpace=wrap;html=1;fillColor=#d5e8d4;strokeColor=#82b366;" parent="1" vertex="1">
          <mxGeometry x="-360" y="-240" width="167.5" height="50" as="geometry" />
        </mxCell>
        <mxCell id="LM8mgtd1PfPeEbZ4qfP5-109" value="" style="endArrow=classic;html=1;rounded=0;entryX=0.5;entryY=1;entryDx=0;entryDy=0;exitX=0.348;exitY=0.054;exitDx=0;exitDy=0;exitPerimeter=0;" parent="1" source="LM8mgtd1PfPeEbZ4qfP5-101" target="LM8mgtd1PfPeEbZ4qfP5-108" edge="1">
          <mxGeometry width="50" height="50" relative="1" as="geometry">
            <mxPoint x="-280" as="sourcePoint" />
            <mxPoint x="-90" y="-80" as="targetPoint" />
          </mxGeometry>
        </mxCell>
        <mxCell id="LM8mgtd1PfPeEbZ4qfP5-110" value="sum over sectors" style="edgeLabel;html=1;align=center;verticalAlign=middle;resizable=0;points=[];" parent="LM8mgtd1PfPeEbZ4qfP5-109" vertex="1" connectable="0">
          <mxGeometry x="-0.0781" y="3" relative="1" as="geometry">
            <mxPoint x="-11" y="-29" as="offset" />
          </mxGeometry>
        </mxCell>
        <mxCell id="LM8mgtd1PfPeEbZ4qfP5-115" value="" style="endArrow=none;html=1;rounded=0;exitDx=0;exitDy=0;exitPerimeter=0;" parent="1" source="LM8mgtd1PfPeEbZ4qfP5-117" target="LM8mgtd1PfPeEbZ4qfP5-97" edge="1">
          <mxGeometry width="50" height="50" relative="1" as="geometry">
            <mxPoint x="-390" y="60" as="sourcePoint" />
            <mxPoint x="-50" y="-40" as="targetPoint" />
            <Array as="points" />
          </mxGeometry>
        </mxCell>
        <mxCell id="LM8mgtd1PfPeEbZ4qfP5-118" value="" style="endArrow=none;html=1;rounded=0;entryX=0.611;entryY=-0.005;entryDx=0;entryDy=0;entryPerimeter=0;exitX=0.041;exitY=0.526;exitDx=0;exitDy=0;exitPerimeter=0;" parent="1" source="LM8mgtd1PfPeEbZ4qfP5-117" target="LM8mgtd1PfPeEbZ4qfP5-101" edge="1">
          <mxGeometry width="50" height="50" relative="1" as="geometry">
            <mxPoint x="-190" y="80" as="sourcePoint" />
            <mxPoint x="-140" y="30" as="targetPoint" />
          </mxGeometry>
        </mxCell>
        <mxCell id="LM8mgtd1PfPeEbZ4qfP5-122" value="sum over sectors" style="edgeLabel;html=1;align=center;verticalAlign=middle;resizable=0;points=[];" parent="LM8mgtd1PfPeEbZ4qfP5-118" vertex="1" connectable="0">
          <mxGeometry x="0.0491" relative="1" as="geometry">
            <mxPoint as="offset" />
          </mxGeometry>
        </mxCell>
        <mxCell id="LM8mgtd1PfPeEbZ4qfP5-101" value="&lt;div&gt;&lt;font face=&quot;Verdana&quot;&gt;&lt;b&gt;vm_emiMacSector&lt;/b&gt;&lt;/font&gt;&lt;/div&gt;&lt;div&gt;&lt;i&gt;non-energy-related emission from MACCper sector&lt;/i&gt;&lt;br&gt;&lt;/div&gt;" style="rounded=1;whiteSpace=wrap;html=1;fillColor=#d5e8d4;strokeColor=#82b366;" parent="1" vertex="1">
          <mxGeometry x="-377.37" y="5.37" width="290.75" height="50" as="geometry" />
        </mxCell>
        <mxCell id="LM8mgtd1PfPeEbZ4qfP5-121" value="" style="endArrow=none;html=1;rounded=0;exitX=0.855;exitY=0.025;exitDx=0;exitDy=0;exitPerimeter=0;" parent="1" source="LM8mgtd1PfPeEbZ4qfP5-100" target="LM8mgtd1PfPeEbZ4qfP5-117" edge="1">
          <mxGeometry width="50" height="50" relative="1" as="geometry">
            <mxPoint x="-441" y="7" as="sourcePoint" />
            <mxPoint y="-40" as="targetPoint" />
            <Array as="points">
              <mxPoint x="-460" y="-40" />
            </Array>
          </mxGeometry>
        </mxCell>
        <mxCell id="LM8mgtd1PfPeEbZ4qfP5-117" value="" style="shape=waypoint;sketch=0;fillStyle=solid;size=6;pointerEvents=1;points=[];fillColor=none;resizable=0;rotatable=0;perimeter=centerPerimeter;snapToPoint=1;" parent="1" vertex="1">
          <mxGeometry x="-210" y="-50" width="20" height="20" as="geometry" />
        </mxCell>
        <mxCell id="LM8mgtd1PfPeEbZ4qfP5-123" value="&lt;div&gt;&lt;font face=&quot;Verdana&quot;&gt;&lt;b&gt;vm_emiCDr&lt;/b&gt;&lt;/font&gt;&lt;/div&gt;&lt;div&gt;&lt;i&gt;total (negative) emissions from CDR technologies (stored + used)&lt;br&gt;&lt;/i&gt;&lt;/div&gt;&lt;div&gt;&lt;i&gt;defined for CO2???&lt;br&gt;&lt;/i&gt;&lt;/div&gt;" style="rounded=1;whiteSpace=wrap;html=1;fillColor=#ffe6cc;strokeColor=#d79b00;" parent="1" vertex="1">
          <mxGeometry x="120" y="0.12" width="257.5" height="60.5" as="geometry" />
        </mxCell>
        <mxCell id="LM8mgtd1PfPeEbZ4qfP5-124" value="&lt;div&gt;&lt;font face=&quot;Verdana&quot;&gt;&lt;b&gt;pm_emiExog&lt;/b&gt;&lt;/font&gt;&lt;/div&gt;&lt;div&gt;exogenous emissions&lt;i&gt;&lt;br&gt;&lt;/i&gt;&lt;/div&gt;" style="rounded=1;whiteSpace=wrap;html=1;fillColor=#fff2cc;strokeColor=#d6b656;" parent="1" vertex="1">
          <mxGeometry x="-85" y="93.88" width="170" height="39.5" as="geometry" />
        </mxCell>
        <mxCell id="LM8mgtd1PfPeEbZ4qfP5-125" value="&lt;div&gt;&lt;font face=&quot;Verdana&quot;&gt;&lt;b&gt;vm_demFENonEnergySector&lt;/b&gt;&lt;/font&gt;&lt;/div&gt;&lt;div&gt;&lt;i&gt;energy flows of non-energy feedstocks&lt;br&gt;&lt;/i&gt;&lt;/div&gt;" style="rounded=1;whiteSpace=wrap;html=1;fillColor=#f5f5f5;strokeColor=#666666;fontColor=#333333;" parent="1" vertex="1">
          <mxGeometry x="490.31" y="-1.7763568394002505e-15" width="257.5" height="50" as="geometry" />
        </mxCell>
        <mxCell id="LM8mgtd1PfPeEbZ4qfP5-126" value="" style="shape=waypoint;sketch=0;fillStyle=solid;size=6;pointerEvents=1;points=[];fillColor=none;resizable=0;rotatable=0;perimeter=centerPerimeter;snapToPoint=1;" parent="1" vertex="1">
          <mxGeometry x="250" y="-50" width="20" height="20" as="geometry" />
        </mxCell>
        <mxCell id="LM8mgtd1PfPeEbZ4qfP5-127" value="" style="endArrow=none;html=1;rounded=0;" parent="1" target="LM8mgtd1PfPeEbZ4qfP5-126" edge="1">
          <mxGeometry width="50" height="50" relative="1" as="geometry">
            <mxPoint y="-40" as="sourcePoint" />
            <mxPoint x="170" y="-50" as="targetPoint" />
          </mxGeometry>
        </mxCell>
        <mxCell id="LM8mgtd1PfPeEbZ4qfP5-129" value="" style="endArrow=none;html=1;rounded=0;entryX=0.304;entryY=1.212;entryDx=0;entryDy=0;entryPerimeter=0;exitX=0.545;exitY=-0.009;exitDx=0;exitDy=0;exitPerimeter=0;" parent="1" source="LM8mgtd1PfPeEbZ4qfP5-123" target="LM8mgtd1PfPeEbZ4qfP5-126" edge="1">
          <mxGeometry width="50" height="50" relative="1" as="geometry">
            <mxPoint x="120" as="sourcePoint" />
            <mxPoint x="170" y="-50" as="targetPoint" />
          </mxGeometry>
        </mxCell>
        <mxCell id="LM8mgtd1PfPeEbZ4qfP5-130" value="" style="endArrow=none;html=1;rounded=0;entryX=0.804;entryY=0.712;entryDx=0;entryDy=0;entryPerimeter=0;exitX=0.563;exitY=0.005;exitDx=0;exitDy=0;exitPerimeter=0;" parent="1" source="LM8mgtd1PfPeEbZ4qfP5-125" target="LM8mgtd1PfPeEbZ4qfP5-126" edge="1">
          <mxGeometry width="50" height="50" relative="1" as="geometry">
            <mxPoint x="120" as="sourcePoint" />
            <mxPoint x="170" y="-50" as="targetPoint" />
            <Array as="points">
              <mxPoint x="636" y="-40" />
            </Array>
          </mxGeometry>
        </mxCell>
        <mxCell id="LM8mgtd1PfPeEbZ4qfP5-132" value="sum over what?? * pm_emifactNonEnergy" style="edgeLabel;html=1;align=center;verticalAlign=middle;resizable=0;points=[];" parent="LM8mgtd1PfPeEbZ4qfP5-130" vertex="1" connectable="0">
          <mxGeometry x="-0.8951" y="-1" relative="1" as="geometry">
            <mxPoint as="offset" />
          </mxGeometry>
        </mxCell>
        <mxCell id="LM8mgtd1PfPeEbZ4qfP5-133" value="" style="endArrow=classic;html=1;rounded=0;exitX=0.5;exitY=0;exitDx=0;exitDy=0;entryX=0.5;entryY=1;entryDx=0;entryDy=0;" parent="1" source="LM8mgtd1PfPeEbZ4qfP5-92" target="LM8mgtd1PfPeEbZ4qfP5-91" edge="1">
          <mxGeometry width="50" height="50" relative="1" as="geometry">
            <mxPoint x="-80" y="-20" as="sourcePoint" />
            <mxPoint x="-30" y="-70" as="targetPoint" />
          </mxGeometry>
        </mxCell>
        <mxCell id="LM8mgtd1PfPeEbZ4qfP5-134" value="sum over all markets" style="edgeLabel;html=1;align=center;verticalAlign=middle;resizable=0;points=[];" parent="LM8mgtd1PfPeEbZ4qfP5-133" vertex="1" connectable="0">
          <mxGeometry x="-0.1231" y="-1" relative="1" as="geometry">
            <mxPoint as="offset" />
          </mxGeometry>
        </mxCell>
        <mxCell id="LM8mgtd1PfPeEbZ4qfP5-136" value="" style="endArrow=none;html=1;rounded=0;exitX=0.5;exitY=0;exitDx=0;exitDy=0;entryX=0.958;entryY=0.981;entryDx=0;entryDy=0;entryPerimeter=0;" parent="1" source="LM8mgtd1PfPeEbZ4qfP5-124" target="LM8mgtd1PfPeEbZ4qfP5-97" edge="1">
          <mxGeometry width="50" height="50" relative="1" as="geometry">
            <mxPoint x="-80" y="70" as="sourcePoint" />
            <mxPoint x="-30" y="20" as="targetPoint" />
          </mxGeometry>
        </mxCell>
        <mxCell id="c_pmkNfR0mzENY8hxApa-76" style="edgeStyle=orthogonalEdgeStyle;rounded=0;orthogonalLoop=1;jettySize=auto;html=1;entryX=0.5;entryY=1;entryDx=0;entryDy=0;" edge="1" parent="1" source="LM8mgtd1PfPeEbZ4qfP5-140" target="c_pmkNfR0mzENY8hxApa-74">
          <mxGeometry relative="1" as="geometry" />
        </mxCell>
        <mxCell id="LM8mgtd1PfPeEbZ4qfP5-140" value="&lt;div&gt;&lt;br&gt;&lt;/div&gt;&lt;div&gt;&lt;font face=&quot;Verdana&quot;&gt;&lt;b&gt;v_emiEnFuelEx&lt;/b&gt;&lt;/font&gt;&lt;/div&gt;&lt;div&gt;&lt;i&gt;energy emissions fuel extraction&lt;br&gt;&lt;/i&gt;&lt;/div&gt;&lt;div&gt;&lt;font face=&quot;Verdana&quot;&gt;&lt;br&gt;&lt;/font&gt;&lt;/div&gt;" style="rounded=1;whiteSpace=wrap;html=1;fillColor=#e1d5e7;strokeColor=#9673a6;" parent="1" vertex="1">
          <mxGeometry x="-1493.12" y="330" width="182.5" height="50" as="geometry" />
        </mxCell>
        <mxCell id="c_pmkNfR0mzENY8hxApa-151" style="edgeStyle=orthogonalEdgeStyle;rounded=0;orthogonalLoop=1;jettySize=auto;html=1;entryX=0;entryY=0.5;entryDx=0;entryDy=0;exitX=0.5;exitY=1;exitDx=0;exitDy=0;" edge="1" parent="1" source="LM8mgtd1PfPeEbZ4qfP5-137" target="LM8mgtd1PfPeEbZ4qfP5-177">
          <mxGeometry relative="1" as="geometry">
            <Array as="points">
              <mxPoint x="-580" y="255" />
              <mxPoint x="-580" y="685" />
            </Array>
          </mxGeometry>
        </mxCell>
        <mxCell id="c_pmkNfR0mzENY8hxApa-155" value="Text" style="edgeLabel;html=1;align=center;verticalAlign=middle;resizable=0;points=[];" vertex="1" connectable="0" parent="c_pmkNfR0mzENY8hxApa-151">
          <mxGeometry x="-0.8998" relative="1" as="geometry">
            <mxPoint as="offset" />
          </mxGeometry>
        </mxCell>
        <mxCell id="LM8mgtd1PfPeEbZ4qfP5-137" value="&lt;div&gt;&lt;br&gt;&lt;/div&gt;&lt;div&gt;&lt;font face=&quot;Verdana&quot;&gt;&lt;b&gt;vm_emiTeDetailMkt&lt;/b&gt;&lt;/font&gt;&lt;/div&gt;&lt;div&gt;&lt;i&gt;emission from fuel combustion&lt;br&gt;&lt;/i&gt;&lt;/div&gt;&lt;div&gt;&lt;font face=&quot;Verdana&quot;&gt;&lt;br&gt;&lt;/font&gt;&lt;/div&gt;" style="rounded=1;whiteSpace=wrap;html=1;fillColor=#e1d5e7;strokeColor=#9673a6;" parent="1" vertex="1">
          <mxGeometry x="-653" y="235.13" width="146.5" height="40" as="geometry" />
        </mxCell>
        <mxCell id="LM8mgtd1PfPeEbZ4qfP5-146" value="" style="shape=waypoint;sketch=0;fillStyle=solid;size=6;pointerEvents=1;points=[];fillColor=none;resizable=0;rotatable=0;perimeter=centerPerimeter;snapToPoint=1;" parent="1" vertex="1">
          <mxGeometry x="-610" y="149.07" width="20" height="20" as="geometry" />
        </mxCell>
        <mxCell id="LM8mgtd1PfPeEbZ4qfP5-148" value="" style="endArrow=none;html=1;rounded=0;exitX=0.363;exitY=-0.032;exitDx=0;exitDy=0;exitPerimeter=0;entryX=0.5;entryY=1;entryDx=0;entryDy=0;" parent="1" source="LM8mgtd1PfPeEbZ4qfP5-137" target="c_pmkNfR0mzENY8hxApa-72" edge="1">
          <mxGeometry width="50" height="50" relative="1" as="geometry">
            <mxPoint x="-820" y="280" as="sourcePoint" />
            <mxPoint x="-600" y="210" as="targetPoint" />
          </mxGeometry>
        </mxCell>
        <mxCell id="LM8mgtd1PfPeEbZ4qfP5-150" value="" style="endArrow=none;html=1;rounded=0;entryX=0.381;entryY=0.773;entryDx=0;entryDy=0;entryPerimeter=0;" parent="1" source="LM8mgtd1PfPeEbZ4qfP5-302" target="LM8mgtd1PfPeEbZ4qfP5-146" edge="1">
          <mxGeometry width="50" height="50" relative="1" as="geometry">
            <mxPoint x="-820" y="280" as="sourcePoint" />
            <mxPoint x="-770" y="230" as="targetPoint" />
            <Array as="points" />
          </mxGeometry>
        </mxCell>
        <mxCell id="LM8mgtd1PfPeEbZ4qfP5-152" value="&lt;div&gt;&lt;br&gt;&lt;/div&gt;&lt;div&gt;&lt;font face=&quot;Verdana&quot;&gt;&lt;b&gt;vm_incinerationEmi&lt;/b&gt;&lt;/font&gt;&lt;/div&gt;&lt;div&gt;&lt;i&gt;emission from plastic incineration&lt;br&gt;&lt;/i&gt;&lt;/div&gt;&lt;div&gt;&lt;font face=&quot;Verdana&quot;&gt;&lt;br&gt;&lt;/font&gt;&lt;/div&gt;" style="rounded=1;whiteSpace=wrap;html=1;fillColor=#e1d5e7;strokeColor=#9673a6;" parent="1" vertex="1">
          <mxGeometry x="-783" y="304" width="190" height="50" as="geometry" />
        </mxCell>
        <mxCell id="LM8mgtd1PfPeEbZ4qfP5-156" value="&lt;div&gt;&lt;br&gt;&lt;/div&gt;&lt;div&gt;&lt;font face=&quot;Verdana&quot;&gt;&lt;b&gt;vm_feedstockEmiUnknownFate&lt;/b&gt;&lt;/font&gt;&lt;/div&gt;&lt;div&gt;&lt;i&gt;emission from chemical feedstock with unknown fate&lt;br&gt;&lt;/i&gt;&lt;/div&gt;" style="rounded=1;whiteSpace=wrap;html=1;fillColor=#e1d5e7;strokeColor=#9673a6;" parent="1" vertex="1">
          <mxGeometry x="-970" y="234.69" width="230" height="61.25" as="geometry" />
        </mxCell>
        <mxCell id="LM8mgtd1PfPeEbZ4qfP5-159" value="&lt;div&gt;&lt;b&gt;&lt;br&gt;&lt;/b&gt;&lt;/div&gt;&lt;b&gt;v_co2capturevalve&lt;/b&gt;&lt;div&gt;&lt;i&gt;valve from co2 capture step if capture capacity dont have the same lifetime??? &lt;br&gt;&lt;/i&gt;&lt;/div&gt;&lt;div&gt;&lt;font face=&quot;Verdana&quot;&gt;&lt;br&gt;&lt;/font&gt;&lt;/div&gt;" style="rounded=1;whiteSpace=wrap;html=1;fillColor=#e1d5e7;strokeColor=#9673a6;" parent="1" vertex="1">
          <mxGeometry x="-1220" y="264.38" width="190" height="85.62" as="geometry" />
        </mxCell>
        <mxCell id="LM8mgtd1PfPeEbZ4qfP5-161" value="&lt;div&gt;&lt;br&gt;&lt;/div&gt;&lt;div&gt;&lt;font face=&quot;Verdana&quot;&gt;&lt;b&gt;vm_co2CCUshort&lt;/b&gt;&lt;/font&gt;&lt;/div&gt;&lt;div&gt;&lt;i&gt;emission from short term CCU&lt;br&gt;&lt;/i&gt;&lt;/div&gt;&lt;div&gt;&lt;font face=&quot;Verdana&quot;&gt;&lt;br&gt;&lt;/font&gt;&lt;/div&gt;" style="rounded=1;whiteSpace=wrap;html=1;fillColor=#e1d5e7;strokeColor=#9673a6;" parent="1" vertex="1">
          <mxGeometry x="-1353.12" y="824" width="182.5" height="50" as="geometry" />
        </mxCell>
        <mxCell id="LM8mgtd1PfPeEbZ4qfP5-164" value="" style="shape=waypoint;sketch=0;fillStyle=solid;size=6;pointerEvents=1;points=[];fillColor=none;resizable=0;rotatable=0;perimeter=centerPerimeter;snapToPoint=1;" parent="1" vertex="1">
          <mxGeometry x="-610" y="70.38" width="20" height="20" as="geometry" />
        </mxCell>
        <mxCell id="LM8mgtd1PfPeEbZ4qfP5-165" value="" style="endArrow=classic;html=1;rounded=0;entryX=0.233;entryY=1.017;entryDx=0;entryDy=0;entryPerimeter=0;" parent="1" source="LM8mgtd1PfPeEbZ4qfP5-164" target="LM8mgtd1PfPeEbZ4qfP5-100" edge="1">
          <mxGeometry width="50" height="50" relative="1" as="geometry">
            <mxPoint x="-700" y="170" as="sourcePoint" />
            <mxPoint x="-650" y="120" as="targetPoint" />
          </mxGeometry>
        </mxCell>
        <mxCell id="LM8mgtd1PfPeEbZ4qfP5-167" value="" style="endArrow=none;html=1;rounded=0;exitX=0.81;exitY=0.123;exitDx=0;exitDy=0;exitPerimeter=0;entryX=0.5;entryY=1;entryDx=0;entryDy=0;" parent="1" source="LM8mgtd1PfPeEbZ4qfP5-146" target="c_pmkNfR0mzENY8hxApa-68" edge="1">
          <mxGeometry width="50" height="50" relative="1" as="geometry">
            <mxPoint x="-700" y="170" as="sourcePoint" />
            <mxPoint x="-600" y="140" as="targetPoint" />
          </mxGeometry>
        </mxCell>
        <mxCell id="LM8mgtd1PfPeEbZ4qfP5-169" value="" style="endArrow=none;html=1;rounded=0;exitX=0.763;exitY=0.585;exitDx=0;exitDy=0;exitPerimeter=0;entryX=0;entryY=0.5;entryDx=0;entryDy=0;" parent="1" source="LM8mgtd1PfPeEbZ4qfP5-170" target="c_pmkNfR0mzENY8hxApa-66" edge="1">
          <mxGeometry width="50" height="50" relative="1" as="geometry">
            <mxPoint x="-750" y="120" as="sourcePoint" />
            <mxPoint x="-640" y="90" as="targetPoint" />
          </mxGeometry>
        </mxCell>
        <mxCell id="LM8mgtd1PfPeEbZ4qfP5-170" value="" style="shape=waypoint;sketch=0;fillStyle=solid;size=6;pointerEvents=1;points=[];fillColor=none;resizable=0;rotatable=0;perimeter=centerPerimeter;snapToPoint=1;" parent="1" vertex="1">
          <mxGeometry x="-690" y="70.38" width="20" height="20" as="geometry" />
        </mxCell>
        <mxCell id="c_pmkNfR0mzENY8hxApa-80" style="edgeStyle=orthogonalEdgeStyle;rounded=0;orthogonalLoop=1;jettySize=auto;html=1;entryX=0;entryY=0.5;entryDx=0;entryDy=0;" edge="1" parent="1" source="LM8mgtd1PfPeEbZ4qfP5-172" target="c_pmkNfR0mzENY8hxApa-79">
          <mxGeometry relative="1" as="geometry" />
        </mxCell>
        <mxCell id="LM8mgtd1PfPeEbZ4qfP5-172" value="&lt;div&gt;&lt;b&gt;&lt;br&gt;&lt;/b&gt;&lt;/div&gt;&lt;b&gt;vm_emiIndCCS&lt;/b&gt;&lt;div&gt;&lt;i&gt;industry CCS emissions &lt;br&gt;&lt;/i&gt;&lt;/div&gt;&lt;div&gt;&lt;font face=&quot;Verdana&quot;&gt;&lt;br&gt;&lt;/font&gt;&lt;/div&gt;" style="rounded=1;whiteSpace=wrap;html=1;fillColor=#e1d5e7;strokeColor=#9673a6;" parent="1" vertex="1">
          <mxGeometry x="-1562.12" y="99.76" width="150" height="39.87" as="geometry" />
        </mxCell>
        <mxCell id="LM8mgtd1PfPeEbZ4qfP5-173" value="" style="endArrow=none;html=1;rounded=0;exitX=1;exitY=0.5;exitDx=0;exitDy=0;entryX=0.685;entryY=0.41;entryDx=0;entryDy=0;entryPerimeter=0;" parent="1" source="c_pmkNfR0mzENY8hxApa-79" target="LM8mgtd1PfPeEbZ4qfP5-170" edge="1">
          <mxGeometry width="50" height="50" relative="1" as="geometry">
            <mxPoint x="-910" y="150" as="sourcePoint" />
            <mxPoint x="-680" y="80" as="targetPoint" />
            <Array as="points">
              <mxPoint x="-680" y="120" />
            </Array>
          </mxGeometry>
        </mxCell>
        <mxCell id="LM8mgtd1PfPeEbZ4qfP5-174" value="&lt;div&gt;&lt;b&gt;&lt;br&gt;&lt;/b&gt;&lt;/div&gt;&lt;b&gt;vm_nonIncineratedPlastics&lt;/b&gt;&lt;div&gt;&lt;i&gt;carbon from non-fossil origin contained in plastics that dont get incinerated /plastic removals&lt;br&gt;&lt;/i&gt;&lt;/div&gt;&lt;div&gt;&lt;font face=&quot;Verdana&quot;&gt;&lt;br&gt;&lt;/font&gt;&lt;/div&gt;" style="rounded=1;whiteSpace=wrap;html=1;fillColor=#e1d5e7;strokeColor=#9673a6;" parent="1" vertex="1">
          <mxGeometry x="-1573.12" y="16.130000000000003" width="220" height="54.25" as="geometry" />
        </mxCell>
        <mxCell id="LM8mgtd1PfPeEbZ4qfP5-176" value="" style="endArrow=none;html=1;rounded=0;exitX=0.999;exitY=0.807;exitDx=0;exitDy=0;exitPerimeter=0;entryX=0.983;entryY=0.41;entryDx=0;entryDy=0;entryPerimeter=0;" parent="1" source="LM8mgtd1PfPeEbZ4qfP5-174" target="LM8mgtd1PfPeEbZ4qfP5-170" edge="1">
          <mxGeometry width="50" height="50" relative="1" as="geometry">
            <mxPoint x="-1340" y="80" as="sourcePoint" />
            <mxPoint x="-680" y="80" as="targetPoint" />
          </mxGeometry>
        </mxCell>
        <mxCell id="LM8mgtd1PfPeEbZ4qfP5-177" value="&lt;div&gt;&lt;br&gt;&lt;/div&gt;&lt;div&gt;&lt;font face=&quot;Verdana&quot;&gt;&lt;b&gt;vm_emiTeDetail&lt;/b&gt;&lt;/font&gt;&lt;/div&gt;&lt;div&gt;&lt;i&gt;this is found in emiCdrAll summation&lt;br&gt;&lt;/i&gt;&lt;/div&gt;&lt;div&gt;&lt;font face=&quot;Verdana&quot;&gt;&lt;br&gt;&lt;/font&gt;&lt;/div&gt;" style="rounded=1;whiteSpace=wrap;html=1;fillColor=#e1d5e7;strokeColor=#9673a6;" parent="1" vertex="1">
          <mxGeometry x="-267.5" y="774" width="182.5" height="50" as="geometry" />
        </mxCell>
        <mxCell id="c_pmkNfR0mzENY8hxApa-103" style="edgeStyle=orthogonalEdgeStyle;rounded=0;orthogonalLoop=1;jettySize=auto;html=1;" edge="1" parent="1" target="c_pmkNfR0mzENY8hxApa-101">
          <mxGeometry relative="1" as="geometry">
            <mxPoint x="-484" y="542" as="sourcePoint" />
          </mxGeometry>
        </mxCell>
        <mxCell id="LM8mgtd1PfPeEbZ4qfP5-182" value="&lt;div&gt;&lt;br&gt;&lt;/div&gt;&lt;div&gt;&lt;font face=&quot;Verdana&quot;&gt;&lt;b&gt;vm_demPe&lt;/b&gt;&lt;/font&gt;&lt;/div&gt;&lt;div&gt;&lt;font face=&quot;Verdana&quot;&gt;&lt;br&gt;&lt;/font&gt;&lt;/div&gt;" style="rounded=1;whiteSpace=wrap;html=1;fillColor=#e1d5e7;strokeColor=#9673a6;" parent="1" vertex="1">
          <mxGeometry x="-542" y="541" width="116" height="40" as="geometry" />
        </mxCell>
        <mxCell id="LM8mgtd1PfPeEbZ4qfP5-183" value="&lt;div&gt;&lt;br&gt;&lt;/div&gt;&lt;div&gt;&lt;font face=&quot;Verdana&quot;&gt;&lt;b&gt;vm_co2CCS&lt;/b&gt;&lt;/font&gt;&lt;/div&gt;&lt;div&gt;&lt;font face=&quot;Verdana&quot;&gt;&lt;i&gt;all different ccs&lt;br&gt;&lt;/i&gt;&lt;/font&gt;&lt;/div&gt;&lt;div&gt;&lt;font face=&quot;Verdana&quot;&gt;&lt;br&gt;&lt;/font&gt;&lt;/div&gt;" style="rounded=1;whiteSpace=wrap;html=1;fillColor=#ffe6cc;strokeColor=#d79b00;" parent="1" vertex="1">
          <mxGeometry x="-999.26" y="812.23" width="116" height="40" as="geometry" />
        </mxCell>
        <mxCell id="LM8mgtd1PfPeEbZ4qfP5-187" value="" style="shape=waypoint;sketch=0;fillStyle=solid;size=6;pointerEvents=1;points=[];fillColor=none;resizable=0;rotatable=0;perimeter=centerPerimeter;snapToPoint=1;" parent="1" vertex="1">
          <mxGeometry x="-530" y="572" width="20" height="20" as="geometry" />
        </mxCell>
        <mxCell id="c_pmkNfR0mzENY8hxApa-135" style="edgeStyle=orthogonalEdgeStyle;rounded=0;orthogonalLoop=1;jettySize=auto;html=1;" edge="1" parent="1" source="LM8mgtd1PfPeEbZ4qfP5-191" target="c_pmkNfR0mzENY8hxApa-133">
          <mxGeometry relative="1" as="geometry" />
        </mxCell>
        <mxCell id="LM8mgtd1PfPeEbZ4qfP5-191" value="&lt;div&gt;&lt;br&gt;&lt;/div&gt;&lt;div&gt;&lt;font face=&quot;Verdana&quot;&gt;&lt;b&gt;vm_demFeSector&lt;/b&gt;&lt;/font&gt;&lt;/div&gt;&lt;div&gt;&lt;font face=&quot;Verdana&quot;&gt;&lt;br&gt;&lt;/font&gt;&lt;/div&gt;" style="rounded=1;whiteSpace=wrap;html=1;fillColor=#e1d5e7;strokeColor=#9673a6;" parent="1" vertex="1">
          <mxGeometry x="-253" y="581" width="116" height="40" as="geometry" />
        </mxCell>
        <mxCell id="LM8mgtd1PfPeEbZ4qfP5-209" value="" style="endArrow=classic;html=1;rounded=0;exitX=0.5;exitY=0;exitDx=0;exitDy=0;entryX=0.5;entryY=1;entryDx=0;entryDy=0;" parent="1" source="LM8mgtd1PfPeEbZ4qfP5-210" target="LM8mgtd1PfPeEbZ4qfP5-152" edge="1">
          <mxGeometry width="50" height="50" relative="1" as="geometry">
            <mxPoint x="-772.4999999999995" y="409.99999999999955" as="sourcePoint" />
            <mxPoint x="-690" y="130" as="targetPoint" />
          </mxGeometry>
        </mxCell>
        <mxCell id="LM8mgtd1PfPeEbZ4qfP5-210" value="37_industry" style="shape=hexagon;perimeter=hexagonPerimeter2;whiteSpace=wrap;html=1;fixedSize=1;" parent="1" vertex="1">
          <mxGeometry x="-850" y="400" width="120" height="50" as="geometry" />
        </mxCell>
        <mxCell id="LM8mgtd1PfPeEbZ4qfP5-212" value="" style="endArrow=classic;html=1;rounded=0;entryX=0.486;entryY=0.957;entryDx=0;entryDy=0;entryPerimeter=0;exitX=0.375;exitY=0;exitDx=0;exitDy=0;" parent="1" source="LM8mgtd1PfPeEbZ4qfP5-210" target="LM8mgtd1PfPeEbZ4qfP5-156" edge="1">
          <mxGeometry width="50" height="50" relative="1" as="geometry">
            <mxPoint x="-860" y="400" as="sourcePoint" />
            <mxPoint x="-810" y="350" as="targetPoint" />
          </mxGeometry>
        </mxCell>
        <mxCell id="LM8mgtd1PfPeEbZ4qfP5-213" value="39_CCU" style="shape=hexagon;perimeter=hexagonPerimeter2;whiteSpace=wrap;html=1;fixedSize=1;" parent="1" vertex="1">
          <mxGeometry x="-1370" y="940" width="120" height="50" as="geometry" />
        </mxCell>
        <mxCell id="LM8mgtd1PfPeEbZ4qfP5-214" value="" style="endArrow=classic;html=1;rounded=0;exitX=0.5;exitY=0;exitDx=0;exitDy=0;entryX=0.25;entryY=1;entryDx=0;entryDy=0;" parent="1" source="LM8mgtd1PfPeEbZ4qfP5-213" target="LM8mgtd1PfPeEbZ4qfP5-161" edge="1">
          <mxGeometry width="50" height="50" relative="1" as="geometry">
            <mxPoint x="-891.25" y="973.94" as="sourcePoint" />
            <mxPoint x="-841.25" y="923.94" as="targetPoint" />
          </mxGeometry>
        </mxCell>
        <mxCell id="LM8mgtd1PfPeEbZ4qfP5-220" value="&lt;div&gt;&lt;b&gt;core &lt;/b&gt;&lt;br&gt;&lt;/div&gt;&lt;div&gt;emission from conventional/non-conventional fuel extraction&lt;br&gt;&lt;/div&gt;" style="shape=hexagon;perimeter=hexagonPerimeter2;whiteSpace=wrap;html=1;fixedSize=1;" parent="1" vertex="1">
          <mxGeometry x="-1508.75" y="450" width="198.75" height="60" as="geometry" />
        </mxCell>
        <mxCell id="LM8mgtd1PfPeEbZ4qfP5-221" value="" style="endArrow=classic;html=1;rounded=0;entryX=0.5;entryY=1;entryDx=0;entryDy=0;exitX=0.536;exitY=0.043;exitDx=0;exitDy=0;exitPerimeter=0;" parent="1" source="LM8mgtd1PfPeEbZ4qfP5-220" target="LM8mgtd1PfPeEbZ4qfP5-140" edge="1">
          <mxGeometry width="50" height="50" relative="1" as="geometry">
            <mxPoint x="-1440" y="430" as="sourcePoint" />
            <mxPoint x="-1390" y="380" as="targetPoint" />
          </mxGeometry>
        </mxCell>
        <mxCell id="c_pmkNfR0mzENY8hxApa-81" style="edgeStyle=orthogonalEdgeStyle;rounded=0;orthogonalLoop=1;jettySize=auto;html=1;" edge="1" parent="1" source="LM8mgtd1PfPeEbZ4qfP5-222" target="LM8mgtd1PfPeEbZ4qfP5-174">
          <mxGeometry relative="1" as="geometry" />
        </mxCell>
        <mxCell id="LM8mgtd1PfPeEbZ4qfP5-222" value="37_industry" style="shape=hexagon;perimeter=hexagonPerimeter2;whiteSpace=wrap;html=1;fixedSize=1;" parent="1" vertex="1">
          <mxGeometry x="-1750" y="69.63" width="120" height="50" as="geometry" />
        </mxCell>
        <mxCell id="LM8mgtd1PfPeEbZ4qfP5-223" value="" style="endArrow=classic;html=1;rounded=0;exitX=1;exitY=0.5;exitDx=0;exitDy=0;entryX=0;entryY=0.5;entryDx=0;entryDy=0;" parent="1" source="LM8mgtd1PfPeEbZ4qfP5-222" target="LM8mgtd1PfPeEbZ4qfP5-172" edge="1">
          <mxGeometry width="50" height="50" relative="1" as="geometry">
            <mxPoint x="-970" y="160" as="sourcePoint" />
            <mxPoint x="-1460" y="190" as="targetPoint" />
          </mxGeometry>
        </mxCell>
        <mxCell id="LM8mgtd1PfPeEbZ4qfP5-224" value="&lt;b&gt;MAC emissions (exc cement)&lt;br&gt;&lt;/b&gt;" style="rounded=1;whiteSpace=wrap;html=1;fillColor=#d5e8d4;strokeColor=#82b366;" parent="1" vertex="1">
          <mxGeometry x="-350" y="93.88" width="105.75" height="45.75" as="geometry" />
        </mxCell>
        <mxCell id="LM8mgtd1PfPeEbZ4qfP5-225" value="&lt;b&gt;cement process emissions&lt;br&gt;&lt;/b&gt;" style="rounded=1;whiteSpace=wrap;html=1;fillColor=#d5e8d4;strokeColor=#82b366;" parent="1" vertex="1">
          <mxGeometry x="-350" y="153.18" width="105.75" height="45.75" as="geometry" />
        </mxCell>
        <mxCell id="LM8mgtd1PfPeEbZ4qfP5-226" value="&lt;b&gt;p_macPolCO2luc&lt;br&gt;&lt;/b&gt;" style="rounded=1;whiteSpace=wrap;html=1;fillColor=#d5e8d4;strokeColor=#82b366;" parent="1" vertex="1">
          <mxGeometry x="-350" y="214.62" width="105.75" height="45.75" as="geometry" />
        </mxCell>
        <mxCell id="LM8mgtd1PfPeEbZ4qfP5-227" value="" style="endArrow=classic;html=1;rounded=0;exitDx=0;exitDy=0;entryX=0.612;entryY=0.925;entryDx=0;entryDy=0;entryPerimeter=0;" parent="1" source="LM8mgtd1PfPeEbZ4qfP5-228" target="LM8mgtd1PfPeEbZ4qfP5-101" edge="1">
          <mxGeometry width="50" height="50" relative="1" as="geometry">
            <mxPoint x="-360" y="220" as="sourcePoint" />
            <mxPoint x="-310" y="170" as="targetPoint" />
            <Array as="points" />
          </mxGeometry>
        </mxCell>
        <mxCell id="LM8mgtd1PfPeEbZ4qfP5-229" value="" style="endArrow=none;html=1;rounded=0;exitX=1;exitY=0.5;exitDx=0;exitDy=0;entryDx=0;entryDy=0;entryPerimeter=0;endFill=0;" parent="1" source="LM8mgtd1PfPeEbZ4qfP5-226" target="LM8mgtd1PfPeEbZ4qfP5-228" edge="1">
          <mxGeometry width="50" height="50" relative="1" as="geometry">
            <mxPoint x="-244" y="237" as="sourcePoint" />
            <mxPoint x="-199" y="52" as="targetPoint" />
            <Array as="points">
              <mxPoint x="-200" y="238" />
            </Array>
          </mxGeometry>
        </mxCell>
        <mxCell id="LM8mgtd1PfPeEbZ4qfP5-233" value="net Luc emi" style="edgeLabel;html=1;align=center;verticalAlign=middle;resizable=0;points=[];" parent="LM8mgtd1PfPeEbZ4qfP5-229" vertex="1" connectable="0">
          <mxGeometry x="-0.5444" relative="1" as="geometry">
            <mxPoint x="4" y="8" as="offset" />
          </mxGeometry>
        </mxCell>
        <mxCell id="LM8mgtd1PfPeEbZ4qfP5-228" value="" style="shape=waypoint;sketch=0;fillStyle=solid;size=6;pointerEvents=1;points=[];fillColor=none;resizable=0;rotatable=0;perimeter=centerPerimeter;snapToPoint=1;" parent="1" vertex="1">
          <mxGeometry x="-210" y="166.06" width="20" height="20" as="geometry" />
        </mxCell>
        <mxCell id="LM8mgtd1PfPeEbZ4qfP5-230" value="" style="shape=waypoint;sketch=0;fillStyle=solid;size=6;pointerEvents=1;points=[];fillColor=none;resizable=0;rotatable=0;perimeter=centerPerimeter;snapToPoint=1;" parent="1" vertex="1">
          <mxGeometry x="-210" y="107.13" width="20" height="20" as="geometry" />
        </mxCell>
        <mxCell id="LM8mgtd1PfPeEbZ4qfP5-231" value="" style="endArrow=none;html=1;rounded=0;entryX=1;entryY=0.5;entryDx=0;entryDy=0;" parent="1" source="LM8mgtd1PfPeEbZ4qfP5-228" target="LM8mgtd1PfPeEbZ4qfP5-225" edge="1">
          <mxGeometry width="50" height="50" relative="1" as="geometry">
            <mxPoint x="-270" y="180" as="sourcePoint" />
            <mxPoint x="-220" y="130" as="targetPoint" />
          </mxGeometry>
        </mxCell>
        <mxCell id="LM8mgtd1PfPeEbZ4qfP5-232" value="" style="endArrow=none;html=1;rounded=0;entryX=1;entryY=0.5;entryDx=0;entryDy=0;" parent="1" source="LM8mgtd1PfPeEbZ4qfP5-230" target="LM8mgtd1PfPeEbZ4qfP5-224" edge="1">
          <mxGeometry width="50" height="50" relative="1" as="geometry">
            <mxPoint x="-200" y="120" as="sourcePoint" />
            <mxPoint x="-244.25" y="116.98" as="targetPoint" />
          </mxGeometry>
        </mxCell>
        <mxCell id="LM8mgtd1PfPeEbZ4qfP5-234" value="&lt;div&gt;&lt;font face=&quot;Verdana&quot;&gt;&lt;b&gt;vm_emiCdrAll&lt;/b&gt;&lt;/font&gt;&lt;/div&gt;&lt;div&gt;&lt;i&gt;all CDR emissions summed up (&lt;span style=&quot;color: rgb(255, 0, 0);&quot;&gt;postive/negative?&lt;/span&gt;)&lt;br&gt;&lt;/i&gt;&lt;/div&gt;" style="rounded=1;whiteSpace=wrap;html=1;fillColor=#ffe6cc;strokeColor=#d79b00;" parent="1" vertex="1">
          <mxGeometry x="120.00000000000006" y="666" width="290" height="50" as="geometry" />
        </mxCell>
        <mxCell id="LM8mgtd1PfPeEbZ4qfP5-235" value="&lt;div&gt;&lt;font face=&quot;Verdana&quot;&gt;&lt;b&gt;vm_emiCdrTeDetail&lt;/b&gt;&lt;/font&gt;&lt;/div&gt;&lt;i&gt;gross (negative) emissions from CDR technologies in the CDR module&lt;/i&gt;" style="rounded=1;whiteSpace=wrap;html=1;fillColor=#ffe6cc;strokeColor=#d79b00;" parent="1" vertex="1">
          <mxGeometry x="200" y="280.85" width="200" height="69.15" as="geometry" />
        </mxCell>
        <mxCell id="LM8mgtd1PfPeEbZ4qfP5-236" value="&lt;div&gt;&lt;font face=&quot;Verdana&quot;&gt;&lt;b&gt;v33_co2emi_non_atm_gas&lt;/b&gt;&lt;/font&gt;&lt;/div&gt;&lt;div&gt;&lt;i&gt;CO2 captured from gas used for heat production (DAC, OAE).&lt;/i&gt;&lt;/div&gt;&lt;div&gt;&lt;i&gt;or&lt;/i&gt;&lt;/div&gt;&lt;div&gt;&lt;i&gt;CO2 from CDR-related acitivites that comes from energy demand&lt;br&gt;&lt;/i&gt;&lt;/div&gt;" style="rounded=1;whiteSpace=wrap;html=1;fillColor=#ffe6cc;strokeColor=#d79b00;" parent="1" vertex="1">
          <mxGeometry x="200" y="82.24000000000001" width="198.75" height="83.82" as="geometry" />
        </mxCell>
        <mxCell id="LM8mgtd1PfPeEbZ4qfP5-237" value="&lt;div&gt;&lt;font face=&quot;Verdana&quot;&gt;&lt;b&gt;v33_co2emi_non_atm_calcination&lt;/b&gt;&lt;/font&gt;&lt;/div&gt;&lt;i&gt;CO2 from calcination&lt;/i&gt;" style="rounded=1;whiteSpace=wrap;html=1;fillColor=#ffe6cc;strokeColor=#d79b00;" parent="1" vertex="1">
          <mxGeometry x="200" y="186.06" width="251.25" height="49.07" as="geometry" />
        </mxCell>
        <mxCell id="LM8mgtd1PfPeEbZ4qfP5-238" value="" style="endArrow=classic;html=1;rounded=0;entryX=0.153;entryY=1.031;entryDx=0;entryDy=0;entryPerimeter=0;exitDx=0;exitDy=0;" parent="1" source="LM8mgtd1PfPeEbZ4qfP5-244" target="LM8mgtd1PfPeEbZ4qfP5-123" edge="1">
          <mxGeometry width="50" height="50" relative="1" as="geometry">
            <mxPoint x="120" y="220" as="sourcePoint" />
            <mxPoint x="170" y="170" as="targetPoint" />
            <Array as="points" />
          </mxGeometry>
        </mxCell>
        <mxCell id="LM8mgtd1PfPeEbZ4qfP5-245" value="" style="endArrow=none;html=1;rounded=0;entryDx=0;entryDy=0;entryPerimeter=0;exitDx=0;exitDy=0;endFill=0;" parent="1" source="LM8mgtd1PfPeEbZ4qfP5-246" target="LM8mgtd1PfPeEbZ4qfP5-244" edge="1">
          <mxGeometry width="50" height="50" relative="1" as="geometry">
            <mxPoint x="200" y="315" as="sourcePoint" />
            <mxPoint x="156" y="61" as="targetPoint" />
            <Array as="points" />
          </mxGeometry>
        </mxCell>
        <mxCell id="LM8mgtd1PfPeEbZ4qfP5-244" value="" style="shape=waypoint;sketch=0;fillStyle=solid;size=6;pointerEvents=1;points=[];fillColor=none;resizable=0;rotatable=0;perimeter=centerPerimeter;snapToPoint=1;" parent="1" vertex="1">
          <mxGeometry x="150" y="119.63" width="20" height="20" as="geometry" />
        </mxCell>
        <mxCell id="LM8mgtd1PfPeEbZ4qfP5-247" value="" style="endArrow=none;html=1;rounded=0;entryDx=0;entryDy=0;entryPerimeter=0;exitX=0;exitY=0.5;exitDx=0;exitDy=0;endFill=0;" parent="1" source="LM8mgtd1PfPeEbZ4qfP5-235" target="LM8mgtd1PfPeEbZ4qfP5-246" edge="1">
          <mxGeometry width="50" height="50" relative="1" as="geometry">
            <mxPoint x="200" y="315" as="sourcePoint" />
            <mxPoint x="160" y="130" as="targetPoint" />
            <Array as="points">
              <mxPoint x="160" y="315" />
            </Array>
          </mxGeometry>
        </mxCell>
        <mxCell id="LM8mgtd1PfPeEbZ4qfP5-246" value="" style="shape=waypoint;sketch=0;fillStyle=solid;size=6;pointerEvents=1;points=[];fillColor=none;resizable=0;rotatable=0;perimeter=centerPerimeter;snapToPoint=1;" parent="1" vertex="1">
          <mxGeometry x="150" y="200.59" width="20" height="20" as="geometry" />
        </mxCell>
        <mxCell id="LM8mgtd1PfPeEbZ4qfP5-248" value="" style="endArrow=none;html=1;rounded=0;entryX=0;entryY=0.5;entryDx=0;entryDy=0;" parent="1" source="LM8mgtd1PfPeEbZ4qfP5-246" target="LM8mgtd1PfPeEbZ4qfP5-237" edge="1">
          <mxGeometry width="50" height="50" relative="1" as="geometry">
            <mxPoint x="130" y="230" as="sourcePoint" />
            <mxPoint x="180" y="180" as="targetPoint" />
          </mxGeometry>
        </mxCell>
        <mxCell id="LM8mgtd1PfPeEbZ4qfP5-249" value="" style="endArrow=classic;html=1;rounded=0;fillColor=#f8cecc;strokeColor=#b85450;entryX=0.32;entryY=1.022;entryDx=0;entryDy=0;entryPerimeter=0;" parent="1" target="LM8mgtd1PfPeEbZ4qfP5-237" edge="1">
          <mxGeometry width="50" height="50" relative="1" as="geometry">
            <mxPoint x="280" y="280" as="sourcePoint" />
            <mxPoint x="150" y="130" as="targetPoint" />
          </mxGeometry>
        </mxCell>
        <mxCell id="LM8mgtd1PfPeEbZ4qfP5-250" value="&lt;span style=&quot;color: rgb(255, 0, 0);&quot;&gt;informs???&lt;/span&gt;" style="edgeLabel;html=1;align=center;verticalAlign=middle;resizable=0;points=[];" parent="LM8mgtd1PfPeEbZ4qfP5-249" vertex="1" connectable="0">
          <mxGeometry x="-0.1243" y="-2" relative="1" as="geometry">
            <mxPoint as="offset" />
          </mxGeometry>
        </mxCell>
        <mxCell id="LM8mgtd1PfPeEbZ4qfP5-251" value="" style="endArrow=classic;html=1;rounded=0;exitX=0;exitY=0.5;exitDx=0;exitDy=0;entryX=0.5;entryY=1;entryDx=0;entryDy=0;" parent="1" source="LM8mgtd1PfPeEbZ4qfP5-125" target="c_pmkNfR0mzENY8hxApa-128" edge="1">
          <mxGeometry width="50" height="50" relative="1" as="geometry">
            <mxPoint x="-70" y="280" as="sourcePoint" />
            <mxPoint x="-70" y="570" as="targetPoint" />
            <Array as="points">
              <mxPoint x="460" y="25" />
              <mxPoint x="460" y="620" />
              <mxPoint y="620" />
            </Array>
          </mxGeometry>
        </mxCell>
        <mxCell id="LM8mgtd1PfPeEbZ4qfP5-253" value="37_industry" style="shape=hexagon;perimeter=hexagonPerimeter2;whiteSpace=wrap;html=1;fixedSize=1;" parent="1" vertex="1">
          <mxGeometry x="559.06" y="83.37999999999998" width="120" height="50" as="geometry" />
        </mxCell>
        <mxCell id="LM8mgtd1PfPeEbZ4qfP5-254" value="" style="endArrow=classic;html=1;rounded=0;exitX=0.5;exitY=0;exitDx=0;exitDy=0;entryX=0.5;entryY=1;entryDx=0;entryDy=0;" parent="1" source="LM8mgtd1PfPeEbZ4qfP5-253" target="LM8mgtd1PfPeEbZ4qfP5-125" edge="1">
          <mxGeometry width="50" height="50" relative="1" as="geometry">
            <mxPoint x="750" y="130" as="sourcePoint" />
            <mxPoint x="800" y="80" as="targetPoint" />
          </mxGeometry>
        </mxCell>
        <mxCell id="LM8mgtd1PfPeEbZ4qfP5-256" value="" style="endArrow=classic;html=1;rounded=0;entryX=0.997;entryY=0.202;entryDx=0;entryDy=0;exitX=0.75;exitY=1;exitDx=0;exitDy=0;entryPerimeter=0;" parent="1" source="LM8mgtd1PfPeEbZ4qfP5-177" target="LM8mgtd1PfPeEbZ4qfP5-255" edge="1">
          <mxGeometry width="50" height="50" relative="1" as="geometry">
            <mxPoint x="-80" y="650" as="sourcePoint" />
            <mxPoint x="-30" y="600" as="targetPoint" />
            <Array as="points">
              <mxPoint y="650" />
              <mxPoint x="480" y="660" />
              <mxPoint x="480" y="863" />
            </Array>
          </mxGeometry>
        </mxCell>
        <mxCell id="LM8mgtd1PfPeEbZ4qfP5-257" value="+ BECC" style="edgeLabel;html=1;align=center;verticalAlign=middle;resizable=0;points=[];" parent="LM8mgtd1PfPeEbZ4qfP5-256" vertex="1" connectable="0">
          <mxGeometry x="0.9199" y="-3" relative="1" as="geometry">
            <mxPoint x="-3" y="-20" as="offset" />
          </mxGeometry>
        </mxCell>
        <mxCell id="LM8mgtd1PfPeEbZ4qfP5-258" value="" style="endArrow=classic;html=1;rounded=0;exitX=1;exitY=0.5;exitDx=0;exitDy=0;entryX=1;entryY=0.75;entryDx=0;entryDy=0;" parent="1" source="LM8mgtd1PfPeEbZ4qfP5-235" target="LM8mgtd1PfPeEbZ4qfP5-255" edge="1">
          <mxGeometry width="50" height="50" relative="1" as="geometry">
            <mxPoint x="-80" y="620" as="sourcePoint" />
            <mxPoint x="-30" y="570" as="targetPoint" />
            <Array as="points">
              <mxPoint x="520" y="315" />
              <mxPoint x="520" y="890" />
            </Array>
          </mxGeometry>
        </mxCell>
        <mxCell id="LM8mgtd1PfPeEbZ4qfP5-259" value="- DAC" style="edgeLabel;html=1;align=center;verticalAlign=middle;resizable=0;points=[];" parent="LM8mgtd1PfPeEbZ4qfP5-258" vertex="1" connectable="0">
          <mxGeometry x="0.8671" y="2" relative="1" as="geometry">
            <mxPoint x="5" y="-13" as="offset" />
          </mxGeometry>
        </mxCell>
        <mxCell id="LM8mgtd1PfPeEbZ4qfP5-263" value="&lt;div&gt;&lt;br&gt;&lt;/div&gt;&lt;div&gt;&lt;b&gt;p_macBaseMAgPIENegCO2&lt;/b&gt;&lt;/div&gt;&lt;div&gt;&lt;i&gt;net negative co2luc&lt;br&gt;&lt;/i&gt;&lt;/div&gt;&lt;div&gt;&lt;font face=&quot;Verdana&quot;&gt;&lt;br&gt;&lt;/font&gt;&lt;/div&gt;" style="rounded=1;whiteSpace=wrap;html=1;fillColor=#ffe6cc;strokeColor=#d79b00;" parent="1" vertex="1">
          <mxGeometry x="230.01" y="806" width="182.5" height="50" as="geometry" />
        </mxCell>
        <mxCell id="LM8mgtd1PfPeEbZ4qfP5-264" value="&lt;b&gt;Negative Emissions from CDR Module, not stored geologically&lt;br&gt;&lt;/b&gt;" style="shape=ext;double=1;rounded=0;whiteSpace=wrap;html=1;fillColor=#ffe6cc;strokeColor=#d79b00;" parent="1" vertex="1">
          <mxGeometry x="230.01" y="741" width="137.94" height="49.99" as="geometry" />
        </mxCell>
        <mxCell id="LM8mgtd1PfPeEbZ4qfP5-265" value="" style="endArrow=classic;html=1;rounded=0;exitX=1;exitY=0.25;exitDx=0;exitDy=0;entryX=1;entryY=0.25;entryDx=0;entryDy=0;endFill=1;" parent="1" source="LM8mgtd1PfPeEbZ4qfP5-235" target="LM8mgtd1PfPeEbZ4qfP5-264" edge="1">
          <mxGeometry width="50" height="50" relative="1" as="geometry">
            <mxPoint x="40" y="530" as="sourcePoint" />
            <mxPoint x="90" y="480" as="targetPoint" />
            <Array as="points">
              <mxPoint x="550" y="298" />
              <mxPoint x="550" y="717" />
            </Array>
          </mxGeometry>
        </mxCell>
        <mxCell id="LM8mgtd1PfPeEbZ4qfP5-266" value="+CO2" style="edgeLabel;html=1;align=center;verticalAlign=middle;resizable=0;points=[];" parent="LM8mgtd1PfPeEbZ4qfP5-265" vertex="1" connectable="0">
          <mxGeometry x="0.886" y="-1" relative="1" as="geometry">
            <mxPoint y="-11" as="offset" />
          </mxGeometry>
        </mxCell>
        <mxCell id="LM8mgtd1PfPeEbZ4qfP5-267" value="" style="endArrow=classic;html=1;rounded=0;exitX=1;exitY=0.5;exitDx=0;exitDy=0;entryX=1;entryY=0.75;entryDx=0;entryDy=0;" parent="1" source="LM8mgtd1PfPeEbZ4qfP5-123" target="LM8mgtd1PfPeEbZ4qfP5-264" edge="1">
          <mxGeometry width="50" height="50" relative="1" as="geometry">
            <mxPoint x="40" y="440" as="sourcePoint" />
            <mxPoint x="90" y="390" as="targetPoint" />
            <Array as="points">
              <mxPoint x="430" y="30" />
              <mxPoint x="430" y="160" />
              <mxPoint x="590" y="160" />
              <mxPoint x="590" y="742" />
            </Array>
          </mxGeometry>
        </mxCell>
        <mxCell id="LM8mgtd1PfPeEbZ4qfP5-268" value="-DAC" style="edgeLabel;html=1;align=center;verticalAlign=middle;resizable=0;points=[];" parent="LM8mgtd1PfPeEbZ4qfP5-267" vertex="1" connectable="0">
          <mxGeometry x="0.6823" y="1" relative="1" as="geometry">
            <mxPoint x="-157" y="-11" as="offset" />
          </mxGeometry>
        </mxCell>
        <mxCell id="LM8mgtd1PfPeEbZ4qfP5-272" value="" style="group" parent="1" vertex="1" connectable="0">
          <mxGeometry x="230" y="874.23" width="213.93" height="49.99000000000001" as="geometry" />
        </mxCell>
        <mxCell id="LM8mgtd1PfPeEbZ4qfP5-255" value="&lt;b&gt;BECC + DACC&lt;/b&gt;" style="shape=ext;double=1;rounded=0;whiteSpace=wrap;html=1;fillColor=#ffe6cc;strokeColor=#d79b00;" parent="LM8mgtd1PfPeEbZ4qfP5-272" vertex="1">
          <mxGeometry x="119.99000000000001" width="93.94" height="49.99" as="geometry" />
        </mxCell>
        <mxCell id="LM8mgtd1PfPeEbZ4qfP5-269" value="&lt;div&gt;&lt;b&gt;geol. stored&lt;/b&gt;&lt;/div&gt;&lt;div&gt;&lt;b&gt;fraction&lt;br&gt;&lt;/b&gt;&lt;/div&gt;" style="shape=ext;double=1;rounded=0;whiteSpace=wrap;html=1;fillColor=#ffe6cc;strokeColor=#d79b00;" parent="LM8mgtd1PfPeEbZ4qfP5-272" vertex="1">
          <mxGeometry width="87.94" height="49.99" as="geometry" />
        </mxCell>
        <mxCell id="LM8mgtd1PfPeEbZ4qfP5-271" value="" style="verticalLabelPosition=bottom;verticalAlign=top;html=1;shape=mxgraph.basic.x" parent="LM8mgtd1PfPeEbZ4qfP5-272" vertex="1">
          <mxGeometry x="94.99000000000001" y="17" width="20" height="20" as="geometry" />
        </mxCell>
        <mxCell id="LM8mgtd1PfPeEbZ4qfP5-273" value="" style="endArrow=classic;html=1;rounded=0;exitDx=0;exitDy=0;" parent="1" source="LM8mgtd1PfPeEbZ4qfP5-274" edge="1">
          <mxGeometry width="50" height="50" relative="1" as="geometry">
            <mxPoint x="110" y="806" as="sourcePoint" />
            <mxPoint x="150" y="716" as="targetPoint" />
            <Array as="points" />
          </mxGeometry>
        </mxCell>
        <mxCell id="LM8mgtd1PfPeEbZ4qfP5-275" value="" style="endArrow=none;html=1;rounded=0;entryDx=0;entryDy=0;entryPerimeter=0;exitX=-0.031;exitY=0.422;exitDx=0;exitDy=0;exitPerimeter=0;endFill=0;" parent="1" source="LM8mgtd1PfPeEbZ4qfP5-269" target="LM8mgtd1PfPeEbZ4qfP5-274" edge="1">
          <mxGeometry width="50" height="50" relative="1" as="geometry">
            <mxPoint x="200" y="901" as="sourcePoint" />
            <mxPoint x="156" y="717" as="targetPoint" />
            <Array as="points">
              <mxPoint x="150" y="896" />
            </Array>
          </mxGeometry>
        </mxCell>
        <mxCell id="LM8mgtd1PfPeEbZ4qfP5-274" value="" style="shape=waypoint;sketch=0;fillStyle=solid;size=6;pointerEvents=1;points=[];fillColor=none;resizable=0;rotatable=0;perimeter=centerPerimeter;snapToPoint=1;" parent="1" vertex="1">
          <mxGeometry x="140" y="760.99" width="20" height="20" as="geometry" />
        </mxCell>
        <mxCell id="LM8mgtd1PfPeEbZ4qfP5-276" value="" style="endArrow=none;html=1;rounded=0;entryX=-0.001;entryY=0.585;entryDx=0;entryDy=0;entryPerimeter=0;" parent="1" source="LM8mgtd1PfPeEbZ4qfP5-278" target="LM8mgtd1PfPeEbZ4qfP5-263" edge="1">
          <mxGeometry width="50" height="50" relative="1" as="geometry">
            <mxPoint x="150" y="836" as="sourcePoint" />
            <mxPoint x="190" y="816" as="targetPoint" />
          </mxGeometry>
        </mxCell>
        <mxCell id="LM8mgtd1PfPeEbZ4qfP5-281" value="-" style="edgeLabel;html=1;align=center;verticalAlign=middle;resizable=0;points=[];" parent="LM8mgtd1PfPeEbZ4qfP5-276" vertex="1" connectable="0">
          <mxGeometry x="0.079" relative="1" as="geometry">
            <mxPoint y="-10" as="offset" />
          </mxGeometry>
        </mxCell>
        <mxCell id="LM8mgtd1PfPeEbZ4qfP5-282" value="-" style="edgeLabel;html=1;align=center;verticalAlign=middle;resizable=0;points=[];" parent="LM8mgtd1PfPeEbZ4qfP5-276" vertex="1" connectable="0">
          <mxGeometry x="0.079" relative="1" as="geometry">
            <mxPoint x="-3" y="-85" as="offset" />
          </mxGeometry>
        </mxCell>
        <mxCell id="LM8mgtd1PfPeEbZ4qfP5-277" value="" style="endArrow=none;html=1;rounded=0;entryX=0.011;entryY=0.59;entryDx=0;entryDy=0;entryPerimeter=0;" parent="1" source="LM8mgtd1PfPeEbZ4qfP5-274" target="LM8mgtd1PfPeEbZ4qfP5-264" edge="1">
          <mxGeometry width="50" height="50" relative="1" as="geometry">
            <mxPoint x="170" y="780.99" as="sourcePoint" />
            <mxPoint x="220" y="775.99" as="targetPoint" />
          </mxGeometry>
        </mxCell>
        <mxCell id="LM8mgtd1PfPeEbZ4qfP5-279" value="" style="endArrow=none;html=1;rounded=0;entryDx=0;entryDy=0;" parent="1" target="LM8mgtd1PfPeEbZ4qfP5-278" edge="1">
          <mxGeometry width="50" height="50" relative="1" as="geometry">
            <mxPoint x="150" y="836" as="sourcePoint" />
            <mxPoint x="200" y="831" as="targetPoint" />
          </mxGeometry>
        </mxCell>
        <mxCell id="LM8mgtd1PfPeEbZ4qfP5-278" value="" style="shape=waypoint;sketch=0;fillStyle=solid;size=6;pointerEvents=1;points=[];fillColor=none;resizable=0;rotatable=0;perimeter=centerPerimeter;snapToPoint=1;" parent="1" vertex="1">
          <mxGeometry x="140" y="826" width="20" height="20" as="geometry" />
        </mxCell>
        <mxCell id="LM8mgtd1PfPeEbZ4qfP5-286" value="&lt;div&gt;&lt;br&gt;&lt;/div&gt;&lt;div&gt;&lt;font face=&quot;Verdana&quot;&gt;&lt;b&gt;v_co2capture&lt;/b&gt;&lt;/font&gt;&lt;/div&gt;&lt;div&gt;&lt;font face=&quot;Verdana&quot;&gt;&lt;i&gt;all captured CO2&lt;br&gt;&lt;/i&gt;&lt;/font&gt;&lt;/div&gt;&lt;div&gt;&lt;font face=&quot;Verdana&quot;&gt;&lt;br&gt;&lt;/font&gt;&lt;/div&gt;" style="rounded=1;whiteSpace=wrap;html=1;fillColor=#ffe6cc;strokeColor=#d79b00;" parent="1" vertex="1">
          <mxGeometry x="-869.26" y="1050" width="116" height="40" as="geometry" />
        </mxCell>
        <mxCell id="LM8mgtd1PfPeEbZ4qfP5-287" value="" style="endArrow=classic;html=1;rounded=0;entryX=0;entryY=0.5;entryDx=0;entryDy=0;" parent="1" source="LM8mgtd1PfPeEbZ4qfP5-288" target="LM8mgtd1PfPeEbZ4qfP5-286" edge="1">
          <mxGeometry width="50" height="50" relative="1" as="geometry">
            <mxPoint x="-921.26" y="1070" as="sourcePoint" />
            <mxPoint x="-1421.26" y="770" as="targetPoint" />
          </mxGeometry>
        </mxCell>
        <mxCell id="LM8mgtd1PfPeEbZ4qfP5-288" value="" style="shape=waypoint;sketch=0;fillStyle=solid;size=6;pointerEvents=1;points=[];fillColor=none;resizable=0;rotatable=0;perimeter=centerPerimeter;snapToPoint=1;" parent="1" vertex="1">
          <mxGeometry x="-951.26" y="1060" width="20" height="20" as="geometry" />
        </mxCell>
        <mxCell id="LM8mgtd1PfPeEbZ4qfP5-289" value="" style="endArrow=none;html=1;rounded=0;entryX=0;entryY=0.75;entryDx=0;entryDy=0;exitX=0.158;exitY=0.408;exitDx=0;exitDy=0;exitPerimeter=0;endFill=0;startArrow=classic;startFill=1;" parent="1" source="LM8mgtd1PfPeEbZ4qfP5-288" target="LM8mgtd1PfPeEbZ4qfP5-183" edge="1">
          <mxGeometry width="50" height="50" relative="1" as="geometry">
            <mxPoint x="-1201.26" y="830" as="sourcePoint" />
            <mxPoint x="-1151.26" y="780" as="targetPoint" />
            <Array as="points">
              <mxPoint x="-941.26" y="1030" />
              <mxPoint x="-941.26" y="1020" />
            </Array>
          </mxGeometry>
        </mxCell>
        <mxCell id="LM8mgtd1PfPeEbZ4qfP5-290" value="" style="endArrow=none;html=1;rounded=0;entryX=0.75;entryY=1;entryDx=0;entryDy=0;exitX=1.071;exitY=0.986;exitDx=0;exitDy=0;exitPerimeter=0;endFill=0;startArrow=classic;startFill=1;" parent="1" source="LM8mgtd1PfPeEbZ4qfP5-288" target="LM8mgtd1PfPeEbZ4qfP5-161" edge="1">
          <mxGeometry width="50" height="50" relative="1" as="geometry">
            <mxPoint x="-510" y="520" as="sourcePoint" />
            <mxPoint x="-460" y="470" as="targetPoint" />
            <Array as="points">
              <mxPoint x="-1003" y="1040" />
            </Array>
          </mxGeometry>
        </mxCell>
        <mxCell id="LM8mgtd1PfPeEbZ4qfP5-291" value="" style="endArrow=classic;html=1;rounded=0;exitX=0.5;exitY=1;exitDx=0;exitDy=0;entryX=0.214;entryY=0.914;entryDx=0;entryDy=0;entryPerimeter=0;" parent="1" source="LM8mgtd1PfPeEbZ4qfP5-159" target="LM8mgtd1PfPeEbZ4qfP5-288" edge="1">
          <mxGeometry width="50" height="50" relative="1" as="geometry">
            <mxPoint x="-510" y="520" as="sourcePoint" />
            <mxPoint x="-460" y="470" as="targetPoint" />
            <Array as="points">
              <mxPoint x="-1230" y="1080" />
            </Array>
          </mxGeometry>
        </mxCell>
        <mxCell id="LM8mgtd1PfPeEbZ4qfP5-294" value="" style="endArrow=classic;html=1;rounded=0;exitX=0.543;exitY=0.028;exitDx=0;exitDy=0;exitPerimeter=0;endFill=1;" parent="1" source="LM8mgtd1PfPeEbZ4qfP5-152" target="LM8mgtd1PfPeEbZ4qfP5-296" edge="1">
          <mxGeometry width="50" height="50" relative="1" as="geometry">
            <mxPoint x="-820" y="250" as="sourcePoint" />
            <mxPoint x="-680" y="160" as="targetPoint" />
          </mxGeometry>
        </mxCell>
        <mxCell id="LM8mgtd1PfPeEbZ4qfP5-296" value="" style="shape=waypoint;sketch=0;fillStyle=solid;size=6;pointerEvents=1;points=[];fillColor=none;resizable=0;rotatable=0;perimeter=centerPerimeter;snapToPoint=1;" parent="1" vertex="1">
          <mxGeometry x="-690" y="150" width="20" height="20" as="geometry" />
        </mxCell>
        <mxCell id="LM8mgtd1PfPeEbZ4qfP5-297" value="" style="endArrow=none;html=1;rounded=0;entryX=0.563;entryY=0.025;entryDx=0;entryDy=0;entryPerimeter=0;endFill=1;startFill=1;startArrow=classic;" parent="1" source="LM8mgtd1PfPeEbZ4qfP5-302" target="LM8mgtd1PfPeEbZ4qfP5-156" edge="1">
          <mxGeometry width="50" height="50" relative="1" as="geometry">
            <mxPoint x="-840" y="160" as="sourcePoint" />
            <mxPoint x="-770" y="170" as="targetPoint" />
          </mxGeometry>
        </mxCell>
        <mxCell id="LM8mgtd1PfPeEbZ4qfP5-303" value="" style="endArrow=none;html=1;rounded=0;entryDx=0;entryDy=0;entryPerimeter=0;exitDx=0;exitDy=0;" parent="1" source="LM8mgtd1PfPeEbZ4qfP5-310" target="LM8mgtd1PfPeEbZ4qfP5-302" edge="1">
          <mxGeometry width="50" height="50" relative="1" as="geometry">
            <mxPoint x="-1440" y="330" as="sourcePoint" />
            <mxPoint x="-600" y="159" as="targetPoint" />
            <Array as="points" />
          </mxGeometry>
        </mxCell>
        <mxCell id="LM8mgtd1PfPeEbZ4qfP5-304" value="" style="endArrow=none;html=1;rounded=0;entryDx=0;entryDy=0;entryPerimeter=0;" parent="1" target="LM8mgtd1PfPeEbZ4qfP5-302" edge="1">
          <mxGeometry width="50" height="50" relative="1" as="geometry">
            <mxPoint x="-840" y="160" as="sourcePoint" />
            <mxPoint x="-841" y="236" as="targetPoint" />
          </mxGeometry>
        </mxCell>
        <mxCell id="LM8mgtd1PfPeEbZ4qfP5-302" value="" style="shape=waypoint;sketch=0;fillStyle=solid;size=6;pointerEvents=1;points=[];fillColor=none;resizable=0;rotatable=0;perimeter=centerPerimeter;snapToPoint=1;" parent="1" vertex="1">
          <mxGeometry x="-852.5" y="150" width="20" height="20" as="geometry" />
        </mxCell>
        <mxCell id="LM8mgtd1PfPeEbZ4qfP5-305" value="" style="endArrow=none;html=1;rounded=0;exitX=0.554;exitY=0.024;exitDx=0;exitDy=0;exitPerimeter=0;" parent="1" source="c_pmkNfR0mzENY8hxApa-89" target="LM8mgtd1PfPeEbZ4qfP5-306" edge="1">
          <mxGeometry width="50" height="50" relative="1" as="geometry">
            <mxPoint x="-890" y="360" as="sourcePoint" />
            <mxPoint x="-1040" y="160" as="targetPoint" />
          </mxGeometry>
        </mxCell>
        <mxCell id="LM8mgtd1PfPeEbZ4qfP5-306" value="" style="shape=waypoint;sketch=0;fillStyle=solid;size=6;pointerEvents=1;points=[];fillColor=none;resizable=0;rotatable=0;perimeter=centerPerimeter;snapToPoint=1;" parent="1" vertex="1">
          <mxGeometry x="-1260" y="153.18" width="20" height="20" as="geometry" />
        </mxCell>
        <mxCell id="LM8mgtd1PfPeEbZ4qfP5-309" value="" style="endArrow=none;html=1;rounded=0;exitX=0.612;exitY=-0.007;exitDx=0;exitDy=0;exitPerimeter=0;" parent="1" source="c_pmkNfR0mzENY8hxApa-87" target="LM8mgtd1PfPeEbZ4qfP5-310" edge="1">
          <mxGeometry width="50" height="50" relative="1" as="geometry">
            <mxPoint x="-1070" y="360" as="sourcePoint" />
            <mxPoint x="-1206" y="160" as="targetPoint" />
          </mxGeometry>
        </mxCell>
        <mxCell id="c_pmkNfR0mzENY8hxApa-67" style="edgeStyle=orthogonalEdgeStyle;rounded=0;orthogonalLoop=1;jettySize=auto;html=1;" edge="1" parent="1" source="c_pmkNfR0mzENY8hxApa-66" target="LM8mgtd1PfPeEbZ4qfP5-164">
          <mxGeometry relative="1" as="geometry" />
        </mxCell>
        <mxCell id="c_pmkNfR0mzENY8hxApa-66" value="&lt;font style=&quot;font-size: 22px;&quot;&gt;-&lt;/font&gt;" style="rounded=0;whiteSpace=wrap;html=1;" vertex="1" parent="1">
          <mxGeometry x="-653" y="70.38" width="20" height="20" as="geometry" />
        </mxCell>
        <mxCell id="c_pmkNfR0mzENY8hxApa-70" style="edgeStyle=orthogonalEdgeStyle;rounded=0;orthogonalLoop=1;jettySize=auto;html=1;" edge="1" parent="1" source="c_pmkNfR0mzENY8hxApa-68" target="LM8mgtd1PfPeEbZ4qfP5-164">
          <mxGeometry relative="1" as="geometry" />
        </mxCell>
        <mxCell id="c_pmkNfR0mzENY8hxApa-68" value="+" style="rounded=0;whiteSpace=wrap;html=1;" vertex="1" parent="1">
          <mxGeometry x="-610" y="107.13" width="20" height="20" as="geometry" />
        </mxCell>
        <mxCell id="c_pmkNfR0mzENY8hxApa-72" value="&lt;font style=&quot;font-size: 10px;&quot;&gt;sum over&lt;br&gt;emi2te&lt;/font&gt;" style="rounded=0;whiteSpace=wrap;html=1;" vertex="1" parent="1">
          <mxGeometry x="-622.25" y="180" width="44.5" height="34.62" as="geometry" />
        </mxCell>
        <mxCell id="c_pmkNfR0mzENY8hxApa-73" style="edgeStyle=orthogonalEdgeStyle;rounded=0;orthogonalLoop=1;jettySize=auto;html=1;entryX=0.562;entryY=0.704;entryDx=0;entryDy=0;entryPerimeter=0;" edge="1" parent="1" source="c_pmkNfR0mzENY8hxApa-72" target="LM8mgtd1PfPeEbZ4qfP5-146">
          <mxGeometry relative="1" as="geometry" />
        </mxCell>
        <mxCell id="c_pmkNfR0mzENY8hxApa-74" value="no sum, select only ETS" style="rounded=0;whiteSpace=wrap;html=1;" vertex="1" parent="1">
          <mxGeometry x="-1441" y="210" width="80" height="40" as="geometry" />
        </mxCell>
        <mxCell id="c_pmkNfR0mzENY8hxApa-77" value="&lt;div&gt;&lt;span style=&quot;color: rgb(255, 0, 0);&quot;&gt;this is 0 for all nonc02 emission&lt;/span&gt;&lt;/div&gt;" style="text;html=1;align=center;verticalAlign=middle;resizable=0;points=[];autosize=1;strokeColor=none;fillColor=none;" vertex="1" parent="1">
          <mxGeometry x="-1683.12" y="340" width="190" height="30" as="geometry" />
        </mxCell>
        <mxCell id="c_pmkNfR0mzENY8hxApa-78" value="&lt;div align=&quot;left&quot;&gt;cement&lt;/div&gt;&lt;div align=&quot;left&quot;&gt;cement_process&lt;/div&gt;&lt;div align=&quot;left&quot;&gt;steel&lt;/div&gt;&lt;div align=&quot;left&quot;&gt;other&lt;/div&gt;&lt;div align=&quot;left&quot;&gt;&lt;br&gt;&lt;/div&gt;&lt;div align=&quot;left&quot;&gt;&lt;b&gt;only co2!&lt;/b&gt; &lt;br&gt;&lt;/div&gt;" style="text;html=1;align=left;verticalAlign=middle;resizable=0;points=[];autosize=1;strokeColor=none;fillColor=none;" vertex="1" parent="1">
          <mxGeometry x="-1560" y="139.63" width="110" height="100" as="geometry" />
        </mxCell>
        <mxCell id="c_pmkNfR0mzENY8hxApa-79" value="&lt;font style=&quot;font-size: 10px;&quot;&gt;sum over all processes (&lt;b&gt;emiInd37_fuel&lt;/b&gt;), only ETS, only co2&lt;/font&gt;" style="rounded=0;whiteSpace=wrap;html=1;" vertex="1" parent="1">
          <mxGeometry x="-1196" y="98.88" width="186" height="40" as="geometry" />
        </mxCell>
        <mxCell id="c_pmkNfR0mzENY8hxApa-82" value="depends on &lt;b&gt;pm_incinerationRate&lt;/b&gt;" style="text;html=1;align=center;verticalAlign=middle;resizable=0;points=[];autosize=1;strokeColor=none;fillColor=none;" vertex="1" parent="1">
          <mxGeometry x="-1573.12" y="-24.63" width="210" height="30" as="geometry" />
        </mxCell>
        <mxCell id="c_pmkNfR0mzENY8hxApa-85" value="&lt;span style=&quot;color: rgb(255, 0, 0);&quot;&gt;same sum,didnt understand, only co2 &lt;br&gt;&lt;/span&gt;" style="rounded=0;whiteSpace=wrap;html=1;" vertex="1" parent="1">
          <mxGeometry x="-850" y="186.06" width="200" height="30" as="geometry" />
        </mxCell>
        <mxCell id="c_pmkNfR0mzENY8hxApa-88" value="" style="endArrow=none;html=1;rounded=0;exitX=0.612;exitY=-0.007;exitDx=0;exitDy=0;exitPerimeter=0;" edge="1" parent="1" source="LM8mgtd1PfPeEbZ4qfP5-159" target="c_pmkNfR0mzENY8hxApa-87">
          <mxGeometry width="50" height="50" relative="1" as="geometry">
            <mxPoint x="-1214" y="224" as="sourcePoint" />
            <mxPoint x="-1206" y="160" as="targetPoint" />
          </mxGeometry>
        </mxCell>
        <mxCell id="c_pmkNfR0mzENY8hxApa-87" value="no sum, select only ETS, only co2" style="rounded=0;whiteSpace=wrap;html=1;" vertex="1" parent="1">
          <mxGeometry x="-1174.37" y="190.59" width="120" height="40" as="geometry" />
        </mxCell>
        <mxCell id="c_pmkNfR0mzENY8hxApa-90" value="" style="endArrow=none;html=1;rounded=0;exitX=0.554;exitY=0.024;exitDx=0;exitDy=0;exitPerimeter=0;" edge="1" parent="1" source="LM8mgtd1PfPeEbZ4qfP5-161" target="c_pmkNfR0mzENY8hxApa-89">
          <mxGeometry width="50" height="50" relative="1" as="geometry">
            <mxPoint x="-1039" y="311" as="sourcePoint" />
            <mxPoint x="-1040" y="160" as="targetPoint" />
          </mxGeometry>
        </mxCell>
        <mxCell id="c_pmkNfR0mzENY8hxApa-89" value="no sum, select only ETS, only co2" style="rounded=0;whiteSpace=wrap;html=1;" vertex="1" parent="1">
          <mxGeometry x="-1316" y="510" width="120" height="40" as="geometry" />
        </mxCell>
        <mxCell id="c_pmkNfR0mzENY8hxApa-93" value="&lt;span style=&quot;color: rgb(255, 0, 0);&quot;&gt;a sum that I do not understand, only co2&lt;/span&gt;" style="rounded=0;whiteSpace=wrap;html=1;" vertex="1" parent="1">
          <mxGeometry x="-1174.37" y="50" width="268.75" height="33.38" as="geometry" />
        </mxCell>
        <mxCell id="c_pmkNfR0mzENY8hxApa-96" value="" style="endArrow=classic;html=1;rounded=0;exitX=0.5;exitY=0;exitDx=0;exitDy=0;entryX=0.5;entryY=1;entryDx=0;entryDy=0;" edge="1" parent="1" source="LM8mgtd1PfPeEbZ4qfP5-100" target="c_pmkNfR0mzENY8hxApa-94">
          <mxGeometry width="50" height="50" relative="1" as="geometry">
            <mxPoint x="-539" as="sourcePoint" />
            <mxPoint x="-539" y="-190" as="targetPoint" />
          </mxGeometry>
        </mxCell>
        <mxCell id="c_pmkNfR0mzENY8hxApa-94" value="sum over markets" style="rounded=0;whiteSpace=wrap;html=1;" vertex="1" parent="1">
          <mxGeometry x="-574.5" y="-120" width="70" height="35" as="geometry" />
        </mxCell>
        <mxCell id="c_pmkNfR0mzENY8hxApa-100" value="&lt;div&gt;&lt;br&gt;&lt;/div&gt;&lt;div&gt;&lt;font face=&quot;Verdana&quot;&gt;&lt;b&gt;vm_co2CCS&lt;/b&gt;&lt;/font&gt;&lt;/div&gt;&lt;div&gt;&lt;font face=&quot;Verdana&quot;&gt;&lt;br&gt;&lt;/font&gt;&lt;/div&gt;" style="rounded=1;whiteSpace=wrap;html=1;fillColor=#e1d5e7;strokeColor=#9673a6;" vertex="1" parent="1">
          <mxGeometry x="-413" y="542" width="116" height="40" as="geometry" />
        </mxCell>
        <mxCell id="c_pmkNfR0mzENY8hxApa-113" style="edgeStyle=orthogonalEdgeStyle;rounded=0;orthogonalLoop=1;jettySize=auto;html=1;" edge="1" parent="1" source="c_pmkNfR0mzENY8hxApa-101" target="c_pmkNfR0mzENY8hxApa-111">
          <mxGeometry relative="1" as="geometry" />
        </mxCell>
        <mxCell id="c_pmkNfR0mzENY8hxApa-101" value="pm_emifac" style="rounded=0;whiteSpace=wrap;html=1;" vertex="1" parent="1">
          <mxGeometry x="-519" y="489" width="70" height="30" as="geometry" />
        </mxCell>
        <mxCell id="c_pmkNfR0mzENY8hxApa-110" style="edgeStyle=orthogonalEdgeStyle;rounded=0;orthogonalLoop=1;jettySize=auto;html=1;" edge="1" parent="1" source="c_pmkNfR0mzENY8hxApa-102" target="c_pmkNfR0mzENY8hxApa-107">
          <mxGeometry relative="1" as="geometry" />
        </mxCell>
        <mxCell id="c_pmkNfR0mzENY8hxApa-102" value="pm_emifac" style="rounded=0;whiteSpace=wrap;html=1;" vertex="1" parent="1">
          <mxGeometry x="-400" y="489" width="70" height="30" as="geometry" />
        </mxCell>
        <mxCell id="c_pmkNfR0mzENY8hxApa-104" style="edgeStyle=orthogonalEdgeStyle;rounded=0;orthogonalLoop=1;jettySize=auto;html=1;entryX=0.631;entryY=0.962;entryDx=0;entryDy=0;entryPerimeter=0;" edge="1" parent="1" source="c_pmkNfR0mzENY8hxApa-100" target="c_pmkNfR0mzENY8hxApa-102">
          <mxGeometry relative="1" as="geometry" />
        </mxCell>
        <mxCell id="c_pmkNfR0mzENY8hxApa-122" style="edgeStyle=orthogonalEdgeStyle;rounded=0;orthogonalLoop=1;jettySize=auto;html=1;entryX=0.75;entryY=1;entryDx=0;entryDy=0;" edge="1" parent="1" source="c_pmkNfR0mzENY8hxApa-106" target="LM8mgtd1PfPeEbZ4qfP5-137">
          <mxGeometry relative="1" as="geometry" />
        </mxCell>
        <mxCell id="c_pmkNfR0mzENY8hxApa-106" value="sum over &lt;b&gt;emi2te, &lt;/b&gt;only ETS" style="rounded=0;whiteSpace=wrap;html=1;" vertex="1" parent="1">
          <mxGeometry x="-492" y="314" width="500" height="30" as="geometry" />
        </mxCell>
        <mxCell id="c_pmkNfR0mzENY8hxApa-125" style="edgeStyle=orthogonalEdgeStyle;rounded=0;orthogonalLoop=1;jettySize=auto;html=1;entryX=1;entryY=0.5;entryDx=0;entryDy=0;" edge="1" parent="1" source="c_pmkNfR0mzENY8hxApa-107" target="c_pmkNfR0mzENY8hxApa-114">
          <mxGeometry relative="1" as="geometry" />
        </mxCell>
        <mxCell id="c_pmkNfR0mzENY8hxApa-107" value="sum over &lt;b&gt;ccsleak&lt;/b&gt;" style="rounded=0;whiteSpace=wrap;html=1;" vertex="1" parent="1">
          <mxGeometry x="-410.5" y="441" width="91" height="30" as="geometry" />
        </mxCell>
        <mxCell id="c_pmkNfR0mzENY8hxApa-108" value="&lt;div&gt;&lt;span style=&quot;color: rgb(255, 0, 0);&quot;&gt;why does this have&amp;nbsp;&lt;/span&gt;&lt;/div&gt;&lt;div&gt;&lt;span style=&quot;color: rgb(255, 0, 0);&quot;&gt;a grade w / dim=1&lt;/span&gt;&lt;/div&gt;" style="text;html=1;align=center;verticalAlign=middle;resizable=0;points=[];autosize=1;strokeColor=none;fillColor=none;" vertex="1" parent="1">
          <mxGeometry x="-420" y="594" width="130" height="40" as="geometry" />
        </mxCell>
        <mxCell id="c_pmkNfR0mzENY8hxApa-124" style="edgeStyle=orthogonalEdgeStyle;rounded=0;orthogonalLoop=1;jettySize=auto;html=1;entryX=0;entryY=0.5;entryDx=0;entryDy=0;" edge="1" parent="1" source="c_pmkNfR0mzENY8hxApa-111" target="c_pmkNfR0mzENY8hxApa-114">
          <mxGeometry relative="1" as="geometry" />
        </mxCell>
        <mxCell id="c_pmkNfR0mzENY8hxApa-111" value="sum over &lt;b&gt;pe2se&lt;/b&gt;" style="rounded=0;whiteSpace=wrap;html=1;" vertex="1" parent="1">
          <mxGeometry x="-530" y="437" width="91" height="30" as="geometry" />
        </mxCell>
        <mxCell id="c_pmkNfR0mzENY8hxApa-114" value="&lt;div&gt;&lt;b&gt;&lt;font style=&quot;font-size: 14px;&quot;&gt;+&lt;/font&gt;&lt;/b&gt;&lt;/div&gt;&lt;div&gt;(only ETS)&lt;/div&gt;" style="rounded=0;whiteSpace=wrap;html=1;" vertex="1" parent="1">
          <mxGeometry x="-460" y="380" width="70" height="40" as="geometry" />
        </mxCell>
        <mxCell id="c_pmkNfR0mzENY8hxApa-140" style="edgeStyle=orthogonalEdgeStyle;rounded=0;orthogonalLoop=1;jettySize=auto;html=1;entryX=0.5;entryY=1;entryDx=0;entryDy=0;" edge="1" parent="1" source="c_pmkNfR0mzENY8hxApa-128" target="c_pmkNfR0mzENY8hxApa-139">
          <mxGeometry relative="1" as="geometry" />
        </mxCell>
        <mxCell id="c_pmkNfR0mzENY8hxApa-128" value="sum over &lt;b&gt;entyFE2sector2emiMkt_NonEn&lt;/b&gt;" style="rounded=0;whiteSpace=wrap;html=1;" vertex="1" parent="1">
          <mxGeometry x="-100.5" y="575" width="201" height="30" as="geometry" />
        </mxCell>
        <mxCell id="c_pmkNfR0mzENY8hxApa-133" value="+" style="rounded=0;whiteSpace=wrap;html=1;" vertex="1" parent="1">
          <mxGeometry x="-205" y="543" width="20" height="20" as="geometry" />
        </mxCell>
        <mxCell id="c_pmkNfR0mzENY8hxApa-139" value="&lt;font style=&quot;font-size: 22px;&quot;&gt;-&lt;/font&gt;" style="rounded=0;whiteSpace=wrap;html=1;" vertex="1" parent="1">
          <mxGeometry x="-10" y="535" width="20" height="20" as="geometry" />
        </mxCell>
        <mxCell id="c_pmkNfR0mzENY8hxApa-146" style="edgeStyle=orthogonalEdgeStyle;rounded=0;orthogonalLoop=1;jettySize=auto;html=1;entryX=0.5;entryY=1;entryDx=0;entryDy=0;" edge="1" parent="1" source="c_pmkNfR0mzENY8hxApa-142" target="c_pmkNfR0mzENY8hxApa-143">
          <mxGeometry relative="1" as="geometry" />
        </mxCell>
        <mxCell id="c_pmkNfR0mzENY8hxApa-142" value="&lt;div&gt;sum over &lt;b&gt;entyFe2Sector &lt;/b&gt;and &lt;b&gt;sector2emiMkt&lt;/b&gt;&lt;/div&gt;" style="rounded=0;whiteSpace=wrap;html=1;" vertex="1" parent="1">
          <mxGeometry x="-250" y="486" width="390" height="30" as="geometry" />
        </mxCell>
        <mxCell id="c_pmkNfR0mzENY8hxApa-147" style="edgeStyle=orthogonalEdgeStyle;rounded=0;orthogonalLoop=1;jettySize=auto;html=1;" edge="1" parent="1" source="c_pmkNfR0mzENY8hxApa-143" target="c_pmkNfR0mzENY8hxApa-123">
          <mxGeometry relative="1" as="geometry" />
        </mxCell>
        <mxCell id="c_pmkNfR0mzENY8hxApa-143" value="pm_emifac" style="rounded=0;whiteSpace=wrap;html=1;" vertex="1" parent="1">
          <mxGeometry x="-90" y="435" width="70" height="30" as="geometry" />
        </mxCell>
        <mxCell id="c_pmkNfR0mzENY8hxApa-144" style="edgeStyle=orthogonalEdgeStyle;rounded=0;orthogonalLoop=1;jettySize=auto;html=1;entryX=0.143;entryY=0.93;entryDx=0;entryDy=0;entryPerimeter=0;" edge="1" parent="1" source="c_pmkNfR0mzENY8hxApa-133" target="c_pmkNfR0mzENY8hxApa-142">
          <mxGeometry relative="1" as="geometry" />
        </mxCell>
        <mxCell id="c_pmkNfR0mzENY8hxApa-145" style="edgeStyle=orthogonalEdgeStyle;rounded=0;orthogonalLoop=1;jettySize=auto;html=1;entryX=0.641;entryY=0.93;entryDx=0;entryDy=0;entryPerimeter=0;" edge="1" parent="1" source="c_pmkNfR0mzENY8hxApa-139" target="c_pmkNfR0mzENY8hxApa-142">
          <mxGeometry relative="1" as="geometry" />
        </mxCell>
        <mxCell id="c_pmkNfR0mzENY8hxApa-150" style="edgeStyle=orthogonalEdgeStyle;rounded=0;orthogonalLoop=1;jettySize=auto;html=1;entryX=0.134;entryY=0.867;entryDx=0;entryDy=0;entryPerimeter=0;" edge="1" parent="1" source="c_pmkNfR0mzENY8hxApa-114" target="c_pmkNfR0mzENY8hxApa-106">
          <mxGeometry relative="1" as="geometry" />
        </mxCell>
        <mxCell id="c_pmkNfR0mzENY8hxApa-152" style="edgeStyle=orthogonalEdgeStyle;rounded=0;orthogonalLoop=1;jettySize=auto;html=1;entryX=0.341;entryY=0.956;entryDx=0;entryDy=0;entryPerimeter=0;" edge="1" parent="1" source="LM8mgtd1PfPeEbZ4qfP5-183" target="LM8mgtd1PfPeEbZ4qfP5-269">
          <mxGeometry relative="1" as="geometry">
            <Array as="points">
              <mxPoint x="-941" y="950" />
              <mxPoint x="260" y="950" />
            </Array>
          </mxGeometry>
        </mxCell>
        <mxCell id="c_pmkNfR0mzENY8hxApa-153" style="edgeStyle=orthogonalEdgeStyle;rounded=0;orthogonalLoop=1;jettySize=auto;html=1;" edge="1" parent="1" source="LM8mgtd1PfPeEbZ4qfP5-286" target="LM8mgtd1PfPeEbZ4qfP5-269">
          <mxGeometry relative="1" as="geometry">
            <Array as="points">
              <mxPoint x="-811" y="1040" />
              <mxPoint x="290" y="1040" />
            </Array>
          </mxGeometry>
        </mxCell>
        <mxCell id="c_pmkNfR0mzENY8hxApa-154" value="" style="endArrow=none;html=1;rounded=0;entryDx=0;entryDy=0;entryPerimeter=0;exitX=0.5;exitY=0;exitDx=0;exitDy=0;" edge="1" parent="1" source="c_pmkNfR0mzENY8hxApa-74" target="LM8mgtd1PfPeEbZ4qfP5-310">
          <mxGeometry width="50" height="50" relative="1" as="geometry">
            <mxPoint x="-1401" y="210" as="sourcePoint" />
            <mxPoint x="-842" y="160" as="targetPoint" />
            <Array as="points">
              <mxPoint x="-1402" y="160" />
            </Array>
          </mxGeometry>
        </mxCell>
        <mxCell id="LM8mgtd1PfPeEbZ4qfP5-310" value="" style="shape=waypoint;sketch=0;fillStyle=solid;size=6;pointerEvents=1;points=[];fillColor=none;resizable=0;rotatable=0;perimeter=centerPerimeter;snapToPoint=1;" parent="1" vertex="1">
          <mxGeometry x="-1113" y="149.07" width="20" height="20" as="geometry" />
        </mxCell>
      </root>
    </mxGraphModel>
  </diagram>
</mxfile>
